<svg xmlns="http://www.w3.org/2000/svg" xmlns:xlink="http://www.w3.org/1999/xlink" width="232" height="144" viewBox="0 0 232 144">
  <defs>
    <clipPath id="clip-path">
      <rect id="Rectángulo_17" data-name="Rectángulo 17" width="232" height="144" transform="translate(0 0.495)" fill="#fff"/>
    </clipPath>
  </defs>
  <g id="logo" transform="translate(0 -0.495)" clip-path="url(#clip-path)">
    <path id="Trazado_13" data-name="Trazado 13" d="M222.4,65.588H114.439a1.613,1.613,0,0,0-1.709,1.5V85.132a1.614,1.614,0,0,0,1.709,1.5H222.4a1.613,1.613,0,0,0,1.709-1.5V67.084A1.613,1.613,0,0,0,222.4,65.588Z" transform="translate(-50.916 -29.835)" fill="#35323e"/>
    <path id="Trazado_14" data-name="Trazado 14" d="M128.914,19.176s1.582,37.67-1.223,42.08h94.823s-4.028-28.976,0-42.08Z" transform="translate(-57.673 -8.872)" fill="#fff"/>
    <path id="Trazado_15" data-name="Trazado 15" d="M128.914,19.176s1.582,37.67-1.223,42.08h94.823s-4.028-28.976,0-42.08Z" transform="translate(-57.673 -8.872)" opacity="0.03"/>
    <path id="Trazado_16" data-name="Trazado 16" d="M217.134,92.99h-69.5v7.559h69.5Z" transform="translate(-66.68 -42.211)" fill="#35323e"/>
    <path id="Trazado_17" data-name="Trazado 17" d="M219.051,181.007H90.231a7.7,7.7,0,0,1-2.8-.524A6.9,6.9,0,0,1,85.113,179a5.878,5.878,0,0,1-1.424-2.178,5.305,5.305,0,0,1-.284-2.5l2.635-20.786q.26-2.073.375-4.155l.5-14.094q.17-4.777.737-9.529.295-2.464.691-4.918l3.388-20.662a10.6,10.6,0,0,1,4.169-6.661,13.519,13.519,0,0,1,8.129-2.654h5.145A13.253,13.253,0,0,1,116.4,93c5.329,3.482,20.469,5.994,38.317,5.994s32.99-2.512,38.331-6a13.253,13.253,0,0,1,7.234-2.131h8.334a8.115,8.115,0,0,1,4.79,1.526,6.4,6.4,0,0,1,2.548,3.865l4.548,22.583q.691,3.444,1.172,6.916a113.268,113.268,0,0,1,1.006,11.6l.461,13.1a64.679,64.679,0,0,0,.809,8.16l2.443,14.983a5.72,5.72,0,0,1-.224,2.755,6.312,6.312,0,0,1-1.512,2.425,7.421,7.421,0,0,1-2.526,1.655A8.331,8.331,0,0,1,219.051,181.007Z" transform="translate(-37.652 -41.249)" fill="#464353"/>
    <path id="Trazado_18" data-name="Trazado 18" d="M219.882,159.909H106.046a4.34,4.34,0,0,0-4.6,4.025v38.251a4.339,4.339,0,0,0,4.6,4.024H219.882a4.339,4.339,0,0,0,4.6-4.024V163.934A4.339,4.339,0,0,0,219.882,159.909Z" transform="translate(-45.821 -72.436)" opacity="0.1"/>
    <path id="Trazado_19" data-name="Trazado 19" d="M112.976,170.241c1.948,0,3.526-1.156,3.526-2.583s-1.578-2.583-3.526-2.583-3.526,1.156-3.526,2.583S111.029,170.241,112.976,170.241Z" transform="translate(-49.435 -74.769)" fill="#07689f"/>
    <path id="Trazado_20" data-name="Trazado 20" d="M112.976,170.241c1.948,0,3.526-1.156,3.526-2.583s-1.578-2.583-3.526-2.583-3.526,1.156-3.526,2.583S111.029,170.241,112.976,170.241Z" transform="translate(-49.435 -74.769)" opacity="0.1"/>
    <path id="Trazado_21" data-name="Trazado 21" d="M112.976,169.208c1.948,0,3.526-1.156,3.526-2.583s-1.578-2.583-3.526-2.583-3.526,1.156-3.526,2.583S111.029,169.208,112.976,169.208Z" transform="translate(-49.435 -74.303)" fill="#07689f"/>
    <path id="Trazado_22" data-name="Trazado 22" d="M120.587,186.67c1.947,0,3.526-1.156,3.526-2.583s-1.579-2.583-3.526-2.583-3.526,1.156-3.526,2.583S118.639,186.67,120.587,186.67Z" transform="translate(-52.872 -82.19)" fill="#35323e"/>
    <path id="Trazado_23" data-name="Trazado 23" d="M120.587,186.67c1.947,0,3.526-1.156,3.526-2.583s-1.579-2.583-3.526-2.583-3.526,1.156-3.526,2.583S118.639,186.67,120.587,186.67Z" transform="translate(-52.872 -82.19)" opacity="0.1"/>
    <path id="Trazado_24" data-name="Trazado 24" d="M120.587,185.637c1.947,0,3.526-1.156,3.526-2.583s-1.579-2.583-3.526-2.583-3.526,1.156-3.526,2.583S118.639,185.637,120.587,185.637Z" transform="translate(-52.872 -81.723)" fill="#35323e"/>
    <path id="Trazado_25" data-name="Trazado 25" d="M124.786,203.1c1.947,0,3.526-1.156,3.526-2.583s-1.579-2.583-3.526-2.583-3.526,1.156-3.526,2.583S122.839,203.1,124.786,203.1Z" transform="translate(-54.769 -89.61)" fill="#35323e"/>
    <path id="Trazado_26" data-name="Trazado 26" d="M124.786,203.1c1.947,0,3.526-1.156,3.526-2.583s-1.579-2.583-3.526-2.583-3.526,1.156-3.526,2.583S122.839,203.1,124.786,203.1Z" transform="translate(-54.769 -89.61)" opacity="0.1"/>
    <path id="Trazado_27" data-name="Trazado 27" d="M124.786,202.066c1.947,0,3.526-1.156,3.526-2.583s-1.579-2.583-3.526-2.583-3.526,1.156-3.526,2.583S122.839,202.066,124.786,202.066Z" transform="translate(-54.769 -89.144)" fill="#35323e"/>
    <path id="Trazado_28" data-name="Trazado 28" d="M108.516,205.052c1.947,0,3.526-1.156,3.526-2.583s-1.579-2.583-3.526-2.583-3.526,1.156-3.526,2.583S106.569,205.052,108.516,205.052Z" transform="translate(-47.42 -90.492)" fill="#35323e"/>
    <path id="Trazado_29" data-name="Trazado 29" d="M108.516,205.052c1.947,0,3.526-1.156,3.526-2.583s-1.579-2.583-3.526-2.583-3.526,1.156-3.526,2.583S106.569,205.052,108.516,205.052Z" transform="translate(-47.42 -90.492)" opacity="0.1"/>
    <path id="Trazado_30" data-name="Trazado 30" d="M108.516,204.019c1.947,0,3.526-1.156,3.526-2.583s-1.579-2.583-3.526-2.583-3.526,1.156-3.526,2.583S106.569,204.019,108.516,204.019Z" transform="translate(-47.42 -90.025)" fill="#35323e"/>
    <path id="Trazado_31" data-name="Trazado 31" d="M132.657,219.525c1.947,0,3.526-1.156,3.526-2.583s-1.579-2.583-3.526-2.583-3.526,1.156-3.526,2.583S130.71,219.525,132.657,219.525Z" transform="translate(-58.324 -97.029)" fill="#35323e"/>
    <path id="Trazado_32" data-name="Trazado 32" d="M132.657,219.525c1.947,0,3.526-1.156,3.526-2.583s-1.579-2.583-3.526-2.583-3.526,1.156-3.526,2.583S130.71,219.525,132.657,219.525Z" transform="translate(-58.324 -97.029)" opacity="0.1"/>
    <path id="Trazado_33" data-name="Trazado 33" d="M132.657,218.492c1.947,0,3.526-1.156,3.526-2.583s-1.579-2.583-3.526-2.583-3.526,1.156-3.526,2.583S130.71,218.492,132.657,218.492Z" transform="translate(-58.324 -96.562)" fill="#35323e"/>
    <path id="Trazado_34" data-name="Trazado 34" d="M111.141,220.1c1.947,0,3.526-1.156,3.526-2.583s-1.579-2.583-3.526-2.583-3.526,1.156-3.526,2.583S109.194,220.1,111.141,220.1Z" transform="translate(-48.606 -97.29)" fill="#35323e"/>
    <path id="Trazado_35" data-name="Trazado 35" d="M111.141,220.1c1.947,0,3.526-1.156,3.526-2.583s-1.579-2.583-3.526-2.583-3.526,1.156-3.526,2.583S109.194,220.1,111.141,220.1Z" transform="translate(-48.606 -97.29)" opacity="0.1"/>
    <path id="Trazado_36" data-name="Trazado 36" d="M111.141,219.065c1.947,0,3.526-1.156,3.526-2.583s-1.579-2.583-3.526-2.583-3.526,1.156-3.526,2.583S109.194,219.065,111.141,219.065Z" transform="translate(-48.606 -96.822)" fill="#35323e"/>
    <path id="Trazado_37" data-name="Trazado 37" d="M150.372,219.525c1.947,0,3.526-1.156,3.526-2.583s-1.579-2.583-3.526-2.583-3.526,1.156-3.526,2.583S148.425,219.525,150.372,219.525Z" transform="translate(-66.325 -97.029)" fill="#35323e"/>
    <path id="Trazado_38" data-name="Trazado 38" d="M150.372,219.525c1.947,0,3.526-1.156,3.526-2.583s-1.579-2.583-3.526-2.583-3.526,1.156-3.526,2.583S148.425,219.525,150.372,219.525Z" transform="translate(-66.325 -97.029)" opacity="0.1"/>
    <path id="Trazado_39" data-name="Trazado 39" d="M150.372,218.492c1.947,0,3.526-1.156,3.526-2.583s-1.579-2.583-3.526-2.583-3.526,1.156-3.526,2.583S148.425,218.492,150.372,218.492Z" transform="translate(-66.325 -96.562)" fill="#35323e"/>
    <path id="Trazado_40" data-name="Trazado 40" d="M169.134,219.525c1.947,0,3.526-1.156,3.526-2.583s-1.579-2.583-3.526-2.583-3.526,1.156-3.526,2.583S167.186,219.525,169.134,219.525Z" transform="translate(-74.799 -97.029)" fill="#35323e"/>
    <path id="Trazado_41" data-name="Trazado 41" d="M169.134,219.525c1.947,0,3.526-1.156,3.526-2.583s-1.579-2.583-3.526-2.583-3.526,1.156-3.526,2.583S167.186,219.525,169.134,219.525Z" transform="translate(-74.799 -97.029)" opacity="0.1"/>
    <path id="Trazado_42" data-name="Trazado 42" d="M169.134,218.492c1.947,0,3.526-1.156,3.526-2.583s-1.579-2.583-3.526-2.583-3.526,1.156-3.526,2.583S167.186,218.492,169.134,218.492Z" transform="translate(-74.799 -96.562)" fill="#35323e"/>
    <path id="Trazado_43" data-name="Trazado 43" d="M186.454,219.525c1.947,0,3.526-1.156,3.526-2.583s-1.579-2.583-3.526-2.583-3.526,1.156-3.526,2.583S184.507,219.525,186.454,219.525Z" transform="translate(-82.622 -97.029)" fill="#35323e"/>
    <path id="Trazado_44" data-name="Trazado 44" d="M186.454,219.525c1.947,0,3.526-1.156,3.526-2.583s-1.579-2.583-3.526-2.583-3.526,1.156-3.526,2.583S184.507,219.525,186.454,219.525Z" transform="translate(-82.622 -97.029)" opacity="0.1"/>
    <path id="Trazado_45" data-name="Trazado 45" d="M186.454,218.492c1.947,0,3.526-1.156,3.526-2.583s-1.579-2.583-3.526-2.583-3.526,1.156-3.526,2.583S184.507,218.492,186.454,218.492Z" transform="translate(-82.622 -96.562)" fill="#35323e"/>
    <path id="Trazado_46" data-name="Trazado 46" d="M205.61,219.525c1.947,0,3.526-1.156,3.526-2.583s-1.579-2.583-3.526-2.583-3.526,1.156-3.526,2.583S203.663,219.525,205.61,219.525Z" transform="translate(-91.274 -97.029)" fill="#35323e"/>
    <path id="Trazado_47" data-name="Trazado 47" d="M205.61,219.525c1.947,0,3.526-1.156,3.526-2.583s-1.579-2.583-3.526-2.583-3.526,1.156-3.526,2.583S203.663,219.525,205.61,219.525Z" transform="translate(-91.274 -97.029)" opacity="0.1"/>
    <path id="Trazado_48" data-name="Trazado 48" d="M205.61,218.492c1.947,0,3.526-1.156,3.526-2.583s-1.579-2.583-3.526-2.583-3.526,1.156-3.526,2.583S203.663,218.492,205.61,218.492Z" transform="translate(-91.274 -96.562)" fill="#35323e"/>
    <path id="Trazado_49" data-name="Trazado 49" d="M222.931,219.525c1.947,0,3.526-1.156,3.526-2.583s-1.579-2.583-3.526-2.583-3.526,1.156-3.526,2.583S220.983,219.525,222.931,219.525Z" transform="translate(-99.097 -97.029)" fill="#35323e"/>
    <path id="Trazado_50" data-name="Trazado 50" d="M222.931,219.525c1.947,0,3.526-1.156,3.526-2.583s-1.579-2.583-3.526-2.583-3.526,1.156-3.526,2.583S220.983,219.525,222.931,219.525Z" transform="translate(-99.097 -97.029)" opacity="0.1"/>
    <path id="Trazado_51" data-name="Trazado 51" d="M222.931,218.492c1.947,0,3.526-1.156,3.526-2.583s-1.579-2.583-3.526-2.583-3.526,1.156-3.526,2.583S220.983,218.492,222.931,218.492Z" transform="translate(-99.097 -96.562)" fill="#35323e"/>
    <path id="Trazado_52" data-name="Trazado 52" d="M240.117,219.525c1.947,0,3.526-1.156,3.526-2.583s-1.579-2.583-3.526-2.583-3.526,1.156-3.526,2.583S238.169,219.525,240.117,219.525Z" transform="translate(-106.859 -97.029)" fill="#35323e"/>
    <path id="Trazado_53" data-name="Trazado 53" d="M240.117,219.525c1.947,0,3.526-1.156,3.526-2.583s-1.579-2.583-3.526-2.583-3.526,1.156-3.526,2.583S238.169,219.525,240.117,219.525Z" transform="translate(-106.859 -97.029)" opacity="0.1"/>
    <path id="Trazado_54" data-name="Trazado 54" d="M240.117,218.492c1.947,0,3.526-1.156,3.526-2.583s-1.579-2.583-3.526-2.583-3.526,1.156-3.526,2.583S238.169,218.492,240.117,218.492Z" transform="translate(-106.859 -96.562)" fill="#35323e"/>
    <path id="Trazado_55" data-name="Trazado 55" d="M258.752,219.525c1.947,0,3.526-1.156,3.526-2.583s-1.579-2.583-3.526-2.583-3.526,1.156-3.526,2.583S256.8,219.525,258.752,219.525Z" transform="translate(-115.276 -97.029)" fill="#35323e"/>
    <path id="Trazado_56" data-name="Trazado 56" d="M258.752,219.525c1.947,0,3.526-1.156,3.526-2.583s-1.579-2.583-3.526-2.583-3.526,1.156-3.526,2.583S256.8,219.525,258.752,219.525Z" transform="translate(-115.276 -97.029)" opacity="0.1"/>
    <path id="Trazado_57" data-name="Trazado 57" d="M258.752,218.492c1.947,0,3.526-1.156,3.526-2.583s-1.579-2.583-3.526-2.583-3.526,1.156-3.526,2.583S256.8,218.492,258.752,218.492Z" transform="translate(-115.276 -96.562)" fill="#35323e"/>
    <path id="Trazado_58" data-name="Trazado 58" d="M276.2,219.525c1.947,0,3.526-1.156,3.526-2.583s-1.579-2.583-3.526-2.583-3.526,1.156-3.526,2.583S274.255,219.525,276.2,219.525Z" transform="translate(-123.158 -97.029)" fill="#35323e"/>
    <path id="Trazado_59" data-name="Trazado 59" d="M276.2,219.525c1.947,0,3.526-1.156,3.526-2.583s-1.579-2.583-3.526-2.583-3.526,1.156-3.526,2.583S274.255,219.525,276.2,219.525Z" transform="translate(-123.158 -97.029)" opacity="0.1"/>
    <path id="Trazado_60" data-name="Trazado 60" d="M276.2,218.492c1.947,0,3.526-1.156,3.526-2.583s-1.579-2.583-3.526-2.583-3.526,1.156-3.526,2.583S274.255,218.492,276.2,218.492Z" transform="translate(-123.158 -96.562)" fill="#35323e"/>
    <path id="Trazado_61" data-name="Trazado 61" d="M295.489,219.525c1.947,0,3.526-1.156,3.526-2.583s-1.579-2.583-3.526-2.583-3.526,1.156-3.526,2.583S293.541,219.525,295.489,219.525Z" transform="translate(-131.869 -97.029)" fill="#35323e"/>
    <path id="Trazado_62" data-name="Trazado 62" d="M295.489,219.525c1.947,0,3.526-1.156,3.526-2.583s-1.579-2.583-3.526-2.583-3.526,1.156-3.526,2.583S293.541,219.525,295.489,219.525Z" transform="translate(-131.869 -97.029)" opacity="0.1"/>
    <path id="Trazado_63" data-name="Trazado 63" d="M295.489,218.492c1.947,0,3.526-1.156,3.526-2.583s-1.579-2.583-3.526-2.583-3.526,1.156-3.526,2.583S293.541,218.492,295.489,218.492Z" transform="translate(-131.869 -96.562)" fill="#35323e"/>
    <path id="Trazado_64" data-name="Trazado 64" d="M315.3,219.525c1.947,0,3.526-1.156,3.526-2.583s-1.579-2.583-3.526-2.583-3.526,1.156-3.526,2.583S313.357,219.525,315.3,219.525Z" transform="translate(-140.819 -97.029)" fill="#35323e"/>
    <path id="Trazado_65" data-name="Trazado 65" d="M315.3,219.525c1.947,0,3.526-1.156,3.526-2.583s-1.579-2.583-3.526-2.583-3.526,1.156-3.526,2.583S313.357,219.525,315.3,219.525Z" transform="translate(-140.819 -97.029)" opacity="0.1"/>
    <path id="Trazado_66" data-name="Trazado 66" d="M315.3,218.492c1.947,0,3.526-1.156,3.526-2.583s-1.579-2.583-3.526-2.583-3.526,1.156-3.526,2.583S313.357,218.492,315.3,218.492Z" transform="translate(-140.819 -96.562)" fill="#35323e"/>
    <path id="Trazado_67" data-name="Trazado 67" d="M142.632,203.1c1.947,0,3.526-1.156,3.526-2.583s-1.579-2.583-3.526-2.583-3.526,1.156-3.526,2.583S140.685,203.1,142.632,203.1Z" transform="translate(-62.829 -89.61)" fill="#35323e"/>
    <path id="Trazado_68" data-name="Trazado 68" d="M142.632,203.1c1.947,0,3.526-1.156,3.526-2.583s-1.579-2.583-3.526-2.583-3.526,1.156-3.526,2.583S140.685,203.1,142.632,203.1Z" transform="translate(-62.829 -89.61)" opacity="0.1"/>
    <path id="Trazado_69" data-name="Trazado 69" d="M142.632,202.066c1.947,0,3.526-1.156,3.526-2.583s-1.579-2.583-3.526-2.583-3.526,1.156-3.526,2.583S140.685,202.066,142.632,202.066Z" transform="translate(-62.829 -89.144)" fill="#35323e"/>
    <path id="Trazado_70" data-name="Trazado 70" d="M160.473,203.1c1.948,0,3.526-1.156,3.526-2.583s-1.578-2.583-3.526-2.583-3.526,1.156-3.526,2.583S158.526,203.1,160.473,203.1Z" transform="translate(-70.887 -89.61)" fill="#35323e"/>
    <path id="Trazado_71" data-name="Trazado 71" d="M160.473,203.1c1.948,0,3.526-1.156,3.526-2.583s-1.578-2.583-3.526-2.583-3.526,1.156-3.526,2.583S158.526,203.1,160.473,203.1Z" transform="translate(-70.887 -89.61)" opacity="0.1"/>
    <path id="Trazado_72" data-name="Trazado 72" d="M160.473,202.066c1.948,0,3.526-1.156,3.526-2.583s-1.578-2.583-3.526-2.583-3.526,1.156-3.526,2.583S158.526,202.066,160.473,202.066Z" transform="translate(-70.887 -89.144)" fill="#35323e"/>
    <path id="Trazado_73" data-name="Trazado 73" d="M178.844,203.1c1.947,0,3.526-1.156,3.526-2.583s-1.579-2.583-3.526-2.583-3.526,1.156-3.526,2.583S176.9,203.1,178.844,203.1Z" transform="translate(-79.185 -89.61)" fill="#35323e"/>
    <path id="Trazado_74" data-name="Trazado 74" d="M178.844,203.1c1.947,0,3.526-1.156,3.526-2.583s-1.579-2.583-3.526-2.583-3.526,1.156-3.526,2.583S176.9,203.1,178.844,203.1Z" transform="translate(-79.185 -89.61)" opacity="0.1"/>
    <path id="Trazado_75" data-name="Trazado 75" d="M178.844,202.066c1.947,0,3.526-1.156,3.526-2.583s-1.579-2.583-3.526-2.583-3.526,1.156-3.526,2.583S176.9,202.066,178.844,202.066Z" transform="translate(-79.185 -89.144)" fill="#35323e"/>
    <path id="Trazado_76" data-name="Trazado 76" d="M196.425,203.1c1.947,0,3.526-1.156,3.526-2.583s-1.579-2.583-3.526-2.583-3.526,1.156-3.526,2.583S194.478,203.1,196.425,203.1Z" transform="translate(-87.125 -89.61)" fill="#35323e"/>
    <path id="Trazado_77" data-name="Trazado 77" d="M196.425,203.1c1.947,0,3.526-1.156,3.526-2.583s-1.579-2.583-3.526-2.583-3.526,1.156-3.526,2.583S194.478,203.1,196.425,203.1Z" transform="translate(-87.125 -89.61)" opacity="0.1"/>
    <path id="Trazado_78" data-name="Trazado 78" d="M196.425,202.066c1.947,0,3.526-1.156,3.526-2.583s-1.579-2.583-3.526-2.583-3.526,1.156-3.526,2.583S194.478,202.066,196.425,202.066Z" transform="translate(-87.125 -89.144)" fill="#35323e"/>
    <path id="Trazado_79" data-name="Trazado 79" d="M214.4,203.1c1.948,0,3.526-1.156,3.526-2.583s-1.579-2.583-3.526-2.583-3.526,1.156-3.526,2.583S212.453,203.1,214.4,203.1Z" transform="translate(-95.244 -89.61)" fill="#35323e"/>
    <path id="Trazado_80" data-name="Trazado 80" d="M214.4,203.1c1.948,0,3.526-1.156,3.526-2.583s-1.579-2.583-3.526-2.583-3.526,1.156-3.526,2.583S212.453,203.1,214.4,203.1Z" transform="translate(-95.244 -89.61)" opacity="0.1"/>
    <path id="Trazado_81" data-name="Trazado 81" d="M214.4,202.066c1.948,0,3.526-1.156,3.526-2.583s-1.579-2.583-3.526-2.583-3.526,1.156-3.526,2.583S212.453,202.066,214.4,202.066Z" transform="translate(-95.244 -89.144)" fill="#35323e"/>
    <path id="Trazado_82" data-name="Trazado 82" d="M231.591,203.1c1.947,0,3.526-1.156,3.526-2.583s-1.579-2.583-3.526-2.583-3.526,1.156-3.526,2.583S229.644,203.1,231.591,203.1Z" transform="translate(-103.008 -89.61)" fill="#35323e"/>
    <path id="Trazado_83" data-name="Trazado 83" d="M231.591,203.1c1.947,0,3.526-1.156,3.526-2.583s-1.579-2.583-3.526-2.583-3.526,1.156-3.526,2.583S229.644,203.1,231.591,203.1Z" transform="translate(-103.008 -89.61)" opacity="0.1"/>
    <path id="Trazado_84" data-name="Trazado 84" d="M231.591,202.066c1.947,0,3.526-1.156,3.526-2.583s-1.579-2.583-3.526-2.583-3.526,1.156-3.526,2.583S229.644,202.066,231.591,202.066Z" transform="translate(-103.008 -89.144)" fill="#35323e"/>
    <path id="Trazado_85" data-name="Trazado 85" d="M250.222,203.1c1.947,0,3.526-1.156,3.526-2.583s-1.579-2.583-3.526-2.583-3.526,1.156-3.526,2.583S248.275,203.1,250.222,203.1Z" transform="translate(-111.423 -89.61)" fill="#35323e"/>
    <path id="Trazado_86" data-name="Trazado 86" d="M250.222,203.1c1.947,0,3.526-1.156,3.526-2.583s-1.579-2.583-3.526-2.583-3.526,1.156-3.526,2.583S248.275,203.1,250.222,203.1Z" transform="translate(-111.423 -89.61)" opacity="0.1"/>
    <path id="Trazado_87" data-name="Trazado 87" d="M250.222,202.066c1.947,0,3.526-1.156,3.526-2.583s-1.579-2.583-3.526-2.583-3.526,1.156-3.526,2.583S248.275,202.066,250.222,202.066Z" transform="translate(-111.423 -89.144)" fill="#35323e"/>
    <path id="Trazado_88" data-name="Trazado 88" d="M267.937,203.1c1.947,0,3.526-1.156,3.526-2.583s-1.579-2.583-3.526-2.583-3.526,1.156-3.526,2.583S265.99,203.1,267.937,203.1Z" transform="translate(-119.425 -89.61)" fill="#35323e"/>
    <path id="Trazado_89" data-name="Trazado 89" d="M267.937,203.1c1.947,0,3.526-1.156,3.526-2.583s-1.579-2.583-3.526-2.583-3.526,1.156-3.526,2.583S265.99,203.1,267.937,203.1Z" transform="translate(-119.425 -89.61)" opacity="0.1"/>
    <path id="Trazado_90" data-name="Trazado 90" d="M267.937,202.066c1.947,0,3.526-1.156,3.526-2.583s-1.579-2.583-3.526-2.583-3.526,1.156-3.526,2.583S265.99,202.066,267.937,202.066Z" transform="translate(-119.425 -89.144)" fill="#35323e"/>
    <path id="Trazado_91" data-name="Trazado 91" d="M286.043,203.1c1.947,0,3.526-1.156,3.526-2.583s-1.579-2.583-3.526-2.583-3.526,1.156-3.526,2.583S284.1,203.1,286.043,203.1Z" transform="translate(-127.602 -89.61)" fill="#35323e"/>
    <path id="Trazado_92" data-name="Trazado 92" d="M286.043,203.1c1.947,0,3.526-1.156,3.526-2.583s-1.579-2.583-3.526-2.583-3.526,1.156-3.526,2.583S284.1,203.1,286.043,203.1Z" transform="translate(-127.602 -89.61)" opacity="0.1"/>
    <path id="Trazado_93" data-name="Trazado 93" d="M286.043,202.066c1.947,0,3.526-1.156,3.526-2.583s-1.579-2.583-3.526-2.583-3.526,1.156-3.526,2.583S284.1,202.066,286.043,202.066Z" transform="translate(-127.602 -89.144)" fill="#35323e"/>
    <path id="Trazado_94" data-name="Trazado 94" d="M304.149,203.1c1.947,0,3.526-1.156,3.526-2.583s-1.579-2.583-3.526-2.583-3.526,1.156-3.526,2.583S302.2,203.1,304.149,203.1Z" transform="translate(-135.78 -89.61)" fill="#35323e"/>
    <path id="Trazado_95" data-name="Trazado 95" d="M304.149,203.1c1.947,0,3.526-1.156,3.526-2.583s-1.579-2.583-3.526-2.583-3.526,1.156-3.526,2.583S302.2,203.1,304.149,203.1Z" transform="translate(-135.78 -89.61)" opacity="0.1"/>
    <path id="Trazado_96" data-name="Trazado 96" d="M304.149,202.066c1.947,0,3.526-1.156,3.526-2.583s-1.579-2.583-3.526-2.583-3.526,1.156-3.526,2.583S302.2,202.066,304.149,202.066Z" transform="translate(-135.78 -89.144)" fill="#35323e"/>
    <path id="Trazado_97" data-name="Trazado 97" d="M138.692,186.67c1.947,0,3.526-1.156,3.526-2.583s-1.579-2.583-3.526-2.583-3.526,1.156-3.526,2.583S136.745,186.67,138.692,186.67Z" transform="translate(-61.049 -82.19)" fill="#35323e"/>
    <path id="Trazado_98" data-name="Trazado 98" d="M138.692,186.67c1.947,0,3.526-1.156,3.526-2.583s-1.579-2.583-3.526-2.583-3.526,1.156-3.526,2.583S136.745,186.67,138.692,186.67Z" transform="translate(-61.049 -82.19)" opacity="0.1"/>
    <path id="Trazado_99" data-name="Trazado 99" d="M138.692,185.637c1.947,0,3.526-1.156,3.526-2.583s-1.579-2.583-3.526-2.583-3.526,1.156-3.526,2.583S136.745,185.637,138.692,185.637Z" transform="translate(-61.049 -81.723)" fill="#35323e"/>
    <path id="Trazado_100" data-name="Trazado 100" d="M156.8,186.67c1.947,0,3.526-1.156,3.526-2.583S158.75,181.5,156.8,181.5s-3.526,1.156-3.526,2.583S154.855,186.67,156.8,186.67Z" transform="translate(-69.23 -82.19)" fill="#35323e"/>
    <path id="Trazado_101" data-name="Trazado 101" d="M156.8,186.67c1.947,0,3.526-1.156,3.526-2.583S158.75,181.5,156.8,181.5s-3.526,1.156-3.526,2.583S154.855,186.67,156.8,186.67Z" transform="translate(-69.23 -82.19)" opacity="0.1"/>
    <path id="Trazado_102" data-name="Trazado 102" d="M156.8,185.637c1.947,0,3.526-1.156,3.526-2.583s-1.579-2.583-3.526-2.583-3.526,1.156-3.526,2.583S154.855,185.637,156.8,185.637Z" transform="translate(-69.23 -81.723)" fill="#35323e"/>
    <path id="Trazado_103" data-name="Trazado 103" d="M174.253,186.67c1.948,0,3.526-1.156,3.526-2.583s-1.578-2.583-3.526-2.583-3.526,1.156-3.526,2.583S172.306,186.67,174.253,186.67Z" transform="translate(-77.111 -82.19)" fill="#35323e"/>
    <path id="Trazado_104" data-name="Trazado 104" d="M174.253,186.67c1.948,0,3.526-1.156,3.526-2.583s-1.578-2.583-3.526-2.583-3.526,1.156-3.526,2.583S172.306,186.67,174.253,186.67Z" transform="translate(-77.111 -82.19)" opacity="0.1"/>
    <path id="Trazado_105" data-name="Trazado 105" d="M174.253,185.637c1.948,0,3.526-1.156,3.526-2.583s-1.578-2.583-3.526-2.583-3.526,1.156-3.526,2.583S172.306,185.637,174.253,185.637Z" transform="translate(-77.111 -81.723)" fill="#35323e"/>
    <path id="Trazado_106" data-name="Trazado 106" d="M191.7,186.67c1.947,0,3.526-1.156,3.526-2.583s-1.579-2.583-3.526-2.583-3.526,1.156-3.526,2.583S189.757,186.67,191.7,186.67Z" transform="translate(-84.993 -82.19)" fill="#35323e"/>
    <path id="Trazado_107" data-name="Trazado 107" d="M191.7,186.67c1.947,0,3.526-1.156,3.526-2.583s-1.579-2.583-3.526-2.583-3.526,1.156-3.526,2.583S189.757,186.67,191.7,186.67Z" transform="translate(-84.993 -82.19)" opacity="0.1"/>
    <path id="Trazado_108" data-name="Trazado 108" d="M191.7,185.637c1.947,0,3.526-1.156,3.526-2.583s-1.579-2.583-3.526-2.583-3.526,1.156-3.526,2.583S189.757,185.637,191.7,185.637Z" transform="translate(-84.993 -81.723)" fill="#35323e"/>
    <path id="Trazado_109" data-name="Trazado 109" d="M209.285,186.67c1.947,0,3.526-1.156,3.526-2.583s-1.579-2.583-3.526-2.583-3.526,1.156-3.526,2.583S207.338,186.67,209.285,186.67Z" transform="translate(-92.934 -82.19)" fill="#35323e"/>
    <path id="Trazado_110" data-name="Trazado 110" d="M209.285,186.67c1.947,0,3.526-1.156,3.526-2.583s-1.579-2.583-3.526-2.583-3.526,1.156-3.526,2.583S207.338,186.67,209.285,186.67Z" transform="translate(-92.934 -82.19)" opacity="0.1"/>
    <path id="Trazado_111" data-name="Trazado 111" d="M209.285,185.637c1.947,0,3.526-1.156,3.526-2.583s-1.579-2.583-3.526-2.583-3.526,1.156-3.526,2.583S207.338,185.637,209.285,185.637Z" transform="translate(-92.934 -81.723)" fill="#35323e"/>
    <path id="Trazado_112" data-name="Trazado 112" d="M226.605,186.67c1.947,0,3.526-1.156,3.526-2.583s-1.579-2.583-3.526-2.583-3.526,1.156-3.526,2.583S224.658,186.67,226.605,186.67Z" transform="translate(-100.757 -82.19)" fill="#35323e"/>
    <path id="Trazado_113" data-name="Trazado 113" d="M226.605,186.67c1.947,0,3.526-1.156,3.526-2.583s-1.579-2.583-3.526-2.583-3.526,1.156-3.526,2.583S224.658,186.67,226.605,186.67Z" transform="translate(-100.757 -82.19)" opacity="0.1"/>
    <path id="Trazado_114" data-name="Trazado 114" d="M226.605,185.637c1.947,0,3.526-1.156,3.526-2.583s-1.579-2.583-3.526-2.583-3.526,1.156-3.526,2.583S224.658,185.637,226.605,185.637Z" transform="translate(-100.757 -81.723)" fill="#35323e"/>
    <path id="Trazado_115" data-name="Trazado 115" d="M244.972,186.67c1.947,0,3.526-1.156,3.526-2.583s-1.579-2.583-3.526-2.583-3.526,1.156-3.526,2.583S243.025,186.67,244.972,186.67Z" transform="translate(-109.052 -82.19)" fill="#35323e"/>
    <path id="Trazado_116" data-name="Trazado 116" d="M244.972,186.67c1.947,0,3.526-1.156,3.526-2.583s-1.579-2.583-3.526-2.583-3.526,1.156-3.526,2.583S243.025,186.67,244.972,186.67Z" transform="translate(-109.052 -82.19)" opacity="0.1"/>
    <path id="Trazado_117" data-name="Trazado 117" d="M244.972,185.637c1.947,0,3.526-1.156,3.526-2.583s-1.579-2.583-3.526-2.583-3.526,1.156-3.526,2.583S243.025,185.637,244.972,185.637Z" transform="translate(-109.052 -81.723)" fill="#35323e"/>
    <path id="Trazado_118" data-name="Trazado 118" d="M262.292,186.67c1.948,0,3.526-1.156,3.526-2.583s-1.578-2.583-3.526-2.583-3.526,1.156-3.526,2.583S260.345,186.67,262.292,186.67Z" transform="translate(-116.875 -82.19)" fill="#35323e"/>
    <path id="Trazado_119" data-name="Trazado 119" d="M262.292,186.67c1.948,0,3.526-1.156,3.526-2.583s-1.578-2.583-3.526-2.583-3.526,1.156-3.526,2.583S260.345,186.67,262.292,186.67Z" transform="translate(-116.875 -82.19)" opacity="0.1"/>
    <path id="Trazado_120" data-name="Trazado 120" d="M262.292,185.637c1.948,0,3.526-1.156,3.526-2.583s-1.578-2.583-3.526-2.583-3.526,1.156-3.526,2.583S260.345,185.637,262.292,185.637Z" transform="translate(-116.875 -81.723)" fill="#35323e"/>
    <path id="Trazado_121" data-name="Trazado 121" d="M280.793,186.67c1.947,0,3.526-1.156,3.526-2.583s-1.579-2.583-3.526-2.583-3.526,1.156-3.526,2.583S278.846,186.67,280.793,186.67Z" transform="translate(-125.231 -82.19)" fill="#35323e"/>
    <path id="Trazado_122" data-name="Trazado 122" d="M280.793,186.67c1.947,0,3.526-1.156,3.526-2.583s-1.579-2.583-3.526-2.583-3.526,1.156-3.526,2.583S278.846,186.67,280.793,186.67Z" transform="translate(-125.231 -82.19)" opacity="0.1"/>
    <path id="Trazado_123" data-name="Trazado 123" d="M280.793,185.637c1.947,0,3.526-1.156,3.526-2.583s-1.579-2.583-3.526-2.583-3.526,1.156-3.526,2.583S278.846,185.637,280.793,185.637Z" transform="translate(-125.231 -81.723)" fill="#35323e"/>
    <path id="Trazado_124" data-name="Trazado 124" d="M298.9,186.67c1.947,0,3.526-1.156,3.526-2.583s-1.579-2.583-3.526-2.583-3.526,1.156-3.526,2.583S296.952,186.67,298.9,186.67Z" transform="translate(-133.409 -82.19)" fill="#35323e"/>
    <path id="Trazado_125" data-name="Trazado 125" d="M298.9,186.67c1.947,0,3.526-1.156,3.526-2.583s-1.579-2.583-3.526-2.583-3.526,1.156-3.526,2.583S296.952,186.67,298.9,186.67Z" transform="translate(-133.409 -82.19)" opacity="0.1"/>
    <path id="Trazado_126" data-name="Trazado 126" d="M298.9,185.637c1.947,0,3.526-1.156,3.526-2.583s-1.579-2.583-3.526-2.583-3.526,1.156-3.526,2.583S296.952,185.637,298.9,185.637Z" transform="translate(-133.409 -81.723)" fill="#35323e"/>
    <path id="Trazado_127" data-name="Trazado 127" d="M129.772,170.241c1.947,0,3.526-1.156,3.526-2.583s-1.579-2.583-3.526-2.583-3.526,1.156-3.526,2.583S127.825,170.241,129.772,170.241Z" transform="translate(-57.021 -74.769)" fill="#35323e"/>
    <path id="Trazado_128" data-name="Trazado 128" d="M129.772,170.241c1.947,0,3.526-1.156,3.526-2.583s-1.579-2.583-3.526-2.583-3.526,1.156-3.526,2.583S127.825,170.241,129.772,170.241Z" transform="translate(-57.021 -74.769)" opacity="0.1"/>
    <path id="Trazado_129" data-name="Trazado 129" d="M129.772,169.208c1.947,0,3.526-1.156,3.526-2.583s-1.579-2.583-3.526-2.583-3.526,1.156-3.526,2.583S127.825,169.208,129.772,169.208Z" transform="translate(-57.021 -74.303)" fill="#35323e"/>
    <path id="Trazado_130" data-name="Trazado 130" d="M147.617,170.241c1.948,0,3.526-1.156,3.526-2.583s-1.578-2.583-3.526-2.583-3.526,1.156-3.526,2.583S145.67,170.241,147.617,170.241Z" transform="translate(-65.081 -74.769)" fill="#35323e"/>
    <path id="Trazado_131" data-name="Trazado 131" d="M147.617,170.241c1.948,0,3.526-1.156,3.526-2.583s-1.578-2.583-3.526-2.583-3.526,1.156-3.526,2.583S145.67,170.241,147.617,170.241Z" transform="translate(-65.081 -74.769)" opacity="0.1"/>
    <path id="Trazado_132" data-name="Trazado 132" d="M147.617,169.208c1.948,0,3.526-1.156,3.526-2.583s-1.578-2.583-3.526-2.583-3.526,1.156-3.526,2.583S145.67,169.208,147.617,169.208Z" transform="translate(-65.081 -74.303)" fill="#35323e"/>
    <path id="Trazado_133" data-name="Trazado 133" d="M164.8,170.241c1.947,0,3.526-1.156,3.526-2.583s-1.579-2.583-3.526-2.583-3.526,1.156-3.526,2.583S162.856,170.241,164.8,170.241Z" transform="translate(-72.843 -74.769)" fill="#35323e"/>
    <path id="Trazado_134" data-name="Trazado 134" d="M164.8,170.241c1.947,0,3.526-1.156,3.526-2.583s-1.579-2.583-3.526-2.583-3.526,1.156-3.526,2.583S162.856,170.241,164.8,170.241Z" transform="translate(-72.843 -74.769)" opacity="0.1"/>
    <path id="Trazado_135" data-name="Trazado 135" d="M164.8,169.208c1.947,0,3.526-1.156,3.526-2.583s-1.579-2.583-3.526-2.583-3.526,1.156-3.526,2.583S162.856,169.208,164.8,169.208Z" transform="translate(-72.843 -74.303)" fill="#35323e"/>
    <path id="Trazado_136" data-name="Trazado 136" d="M182.519,170.241c1.947,0,3.526-1.156,3.526-2.583s-1.579-2.583-3.526-2.583-3.526,1.156-3.526,2.583S180.572,170.241,182.519,170.241Z" transform="translate(-80.844 -74.769)" fill="#35323e"/>
    <path id="Trazado_137" data-name="Trazado 137" d="M182.519,170.241c1.947,0,3.526-1.156,3.526-2.583s-1.579-2.583-3.526-2.583-3.526,1.156-3.526,2.583S180.572,170.241,182.519,170.241Z" transform="translate(-80.844 -74.769)" opacity="0.1"/>
    <path id="Trazado_138" data-name="Trazado 138" d="M182.519,169.208c1.947,0,3.526-1.156,3.526-2.583s-1.579-2.583-3.526-2.583-3.526,1.156-3.526,2.583S180.572,169.208,182.519,169.208Z" transform="translate(-80.844 -74.303)" fill="#35323e"/>
    <path id="Trazado_139" data-name="Trazado 139" d="M199.969,170.241c1.947,0,3.526-1.156,3.526-2.583s-1.579-2.583-3.526-2.583-3.526,1.156-3.526,2.583S198.022,170.241,199.969,170.241Z" transform="translate(-88.726 -74.769)" fill="#35323e"/>
    <path id="Trazado_140" data-name="Trazado 140" d="M199.969,170.241c1.947,0,3.526-1.156,3.526-2.583s-1.579-2.583-3.526-2.583-3.526,1.156-3.526,2.583S198.022,170.241,199.969,170.241Z" transform="translate(-88.726 -74.769)" opacity="0.1"/>
    <path id="Trazado_141" data-name="Trazado 141" d="M199.969,169.208c1.947,0,3.526-1.156,3.526-2.583s-1.579-2.583-3.526-2.583-3.526,1.156-3.526,2.583S198.022,169.208,199.969,169.208Z" transform="translate(-88.726 -74.303)" fill="#35323e"/>
    <path id="Trazado_142" data-name="Trazado 142" d="M217.815,170.241c1.947,0,3.526-1.156,3.526-2.583s-1.579-2.583-3.526-2.583-3.526,1.156-3.526,2.583S215.868,170.241,217.815,170.241Z" transform="translate(-96.786 -74.769)" fill="#35323e"/>
    <path id="Trazado_143" data-name="Trazado 143" d="M217.815,170.241c1.947,0,3.526-1.156,3.526-2.583s-1.579-2.583-3.526-2.583-3.526,1.156-3.526,2.583S215.868,170.241,217.815,170.241Z" transform="translate(-96.786 -74.769)" opacity="0.1"/>
    <path id="Trazado_144" data-name="Trazado 144" d="M217.815,169.208c1.947,0,3.526-1.156,3.526-2.583s-1.579-2.583-3.526-2.583-3.526,1.156-3.526,2.583S215.868,169.208,217.815,169.208Z" transform="translate(-96.786 -74.303)" fill="#35323e"/>
    <path id="Trazado_145" data-name="Trazado 145" d="M235.266,170.241c1.947,0,3.526-1.156,3.526-2.583s-1.579-2.583-3.526-2.583-3.526,1.156-3.526,2.583S233.319,170.241,235.266,170.241Z" transform="translate(-104.668 -74.769)" fill="#35323e"/>
    <path id="Trazado_146" data-name="Trazado 146" d="M235.266,170.241c1.947,0,3.526-1.156,3.526-2.583s-1.579-2.583-3.526-2.583-3.526,1.156-3.526,2.583S233.319,170.241,235.266,170.241Z" transform="translate(-104.668 -74.769)" opacity="0.1"/>
    <path id="Trazado_147" data-name="Trazado 147" d="M235.266,169.208c1.947,0,3.526-1.156,3.526-2.583s-1.579-2.583-3.526-2.583-3.526,1.156-3.526,2.583S233.319,169.208,235.266,169.208Z" transform="translate(-104.668 -74.303)" fill="#35323e"/>
    <path id="Trazado_148" data-name="Trazado 148" d="M252.977,170.241c1.947,0,3.526-1.156,3.526-2.583s-1.579-2.583-3.526-2.583-3.526,1.156-3.526,2.583S251.03,170.241,252.977,170.241Z" transform="translate(-112.668 -74.769)" fill="#35323e"/>
    <path id="Trazado_149" data-name="Trazado 149" d="M252.977,170.241c1.947,0,3.526-1.156,3.526-2.583s-1.579-2.583-3.526-2.583-3.526,1.156-3.526,2.583S251.03,170.241,252.977,170.241Z" transform="translate(-112.668 -74.769)" opacity="0.1"/>
    <path id="Trazado_150" data-name="Trazado 150" d="M252.977,169.208c1.947,0,3.526-1.156,3.526-2.583s-1.579-2.583-3.526-2.583-3.526,1.156-3.526,2.583S251.03,169.208,252.977,169.208Z" transform="translate(-112.668 -74.303)" fill="#35323e"/>
    <path id="Trazado_151" data-name="Trazado 151" d="M271.217,170.241c1.947,0,3.526-1.156,3.526-2.583s-1.579-2.583-3.526-2.583-3.526,1.156-3.526,2.583S269.27,170.241,271.217,170.241Z" transform="translate(-120.906 -74.769)" fill="#35323e"/>
    <path id="Trazado_152" data-name="Trazado 152" d="M271.217,170.241c1.947,0,3.526-1.156,3.526-2.583s-1.579-2.583-3.526-2.583-3.526,1.156-3.526,2.583S269.27,170.241,271.217,170.241Z" transform="translate(-120.906 -74.769)" opacity="0.1"/>
    <path id="Trazado_153" data-name="Trazado 153" d="M271.217,169.208c1.947,0,3.526-1.156,3.526-2.583s-1.579-2.583-3.526-2.583-3.526,1.156-3.526,2.583S269.27,169.208,271.217,169.208Z" transform="translate(-120.906 -74.303)" fill="#35323e"/>
    <path id="Trazado_154" data-name="Trazado 154" d="M289.058,170.241c1.947,0,3.526-1.156,3.526-2.583s-1.579-2.583-3.526-2.583-3.526,1.156-3.526,2.583S287.111,170.241,289.058,170.241Z" transform="translate(-128.964 -74.769)" fill="#35323e"/>
    <path id="Trazado_155" data-name="Trazado 155" d="M289.058,170.241c1.947,0,3.526-1.156,3.526-2.583s-1.579-2.583-3.526-2.583-3.526,1.156-3.526,2.583S287.111,170.241,289.058,170.241Z" transform="translate(-128.964 -74.769)" opacity="0.1"/>
    <path id="Trazado_156" data-name="Trazado 156" d="M289.058,169.208c1.947,0,3.526-1.156,3.526-2.583s-1.579-2.583-3.526-2.583-3.526,1.156-3.526,2.583S287.111,169.208,289.058,169.208Z" transform="translate(-128.964 -74.303)" fill="#35323e"/>
    <path id="Trazado_157" data-name="Trazado 157" d="M306.509,170.241c1.948,0,3.526-1.156,3.526-2.583s-1.578-2.583-3.526-2.583-3.526,1.156-3.526,2.583S304.562,170.241,306.509,170.241Z" transform="translate(-136.846 -74.769)" fill="#07689f"/>
    <path id="Trazado_158" data-name="Trazado 158" d="M306.509,170.241c1.948,0,3.526-1.156,3.526-2.583s-1.578-2.583-3.526-2.583-3.526,1.156-3.526,2.583S304.562,170.241,306.509,170.241Z" transform="translate(-136.846 -74.769)" opacity="0.1"/>
    <path id="Trazado_159" data-name="Trazado 159" d="M306.509,169.208c1.948,0,3.526-1.156,3.526-2.583s-1.578-2.583-3.526-2.583-3.526,1.156-3.526,2.583S304.562,169.208,306.509,169.208Z" transform="translate(-136.846 -74.303)" fill="#07689f"/>
    <path id="Trazado_160" data-name="Trazado 160" d="M221.5,230.1H117.969a1.972,1.972,0,0,0-2.089,1.829v1.319a1.972,1.972,0,0,0,2.089,1.829H221.5a1.972,1.972,0,0,0,2.089-1.829V231.93A1.972,1.972,0,0,0,221.5,230.1Z" transform="translate(-52.339 -104.139)" fill="#35323e"/>
    <path id="Trazado_161" data-name="Trazado 161" d="M221.5,230.1H117.969a1.972,1.972,0,0,0-2.089,1.829v1.319a1.972,1.972,0,0,0,2.089,1.829H221.5a1.972,1.972,0,0,0,2.089-1.829V231.93A1.972,1.972,0,0,0,221.5,230.1Z" transform="translate(-52.339 -104.139)" opacity="0.1"/>
    <path id="Trazado_162" data-name="Trazado 162" d="M221.5,229.41H117.969a1.972,1.972,0,0,0-2.089,1.829v1.319a1.972,1.972,0,0,0,2.089,1.829H221.5a1.972,1.972,0,0,0,2.089-1.829v-1.319A1.972,1.972,0,0,0,221.5,229.41Z" transform="translate(-52.339 -103.827)" fill="#35323e"/>
    <path id="Trazado_163" data-name="Trazado 163" d="M220.7,115.083c0,5.323-19.244,11.023-40.94,11.023S142,119.964,142,114.641s16.077-7.811,37.768-7.811S220.7,109.76,220.7,115.083Z" transform="translate(-64.134 -48.462)" opacity="0.1"/>
    <path id="Trazado_164" data-name="Trazado 164" d="M318.348,84.934c1.311,0,2.374-2.3,2.374-5.133s-1.063-5.133-2.374-5.133-2.374,2.3-2.374,5.133S317.037,84.934,318.348,84.934Z" transform="translate(-142.714 -33.935)" fill="#464353"/>
    <path id="Trazado_165" data-name="Trazado 165" d="M106.314,84.934c1.312,0,2.374-2.3,2.374-5.133s-1.063-5.133-2.374-5.133-2.374,2.3-2.374,5.133S105,84.934,106.314,84.934Z" transform="translate(-46.946 -33.935)" fill="#464353"/>
    <path id="Trazado_166" data-name="Trazado 166" d="M225.959,81.789H111.42V83.3H225.959Z" transform="translate(-50.324 -37.152)" opacity="0.1"/>
    <path id="Trazado_167" data-name="Trazado 167" d="M225.959,81.33H111.42v1.512H225.959Z" transform="translate(-50.324 -36.945)" fill="#464353"/>
    <path id="Trazado_168" data-name="Trazado 168" d="M216.947,84.768c-.938-.252-2.662,4.724-2.662,4.724h5.251S217.884,85.02,216.947,84.768Zm-.074.629a.558.558,0,0,1,.281.073.461.461,0,0,1,.186.2.392.392,0,0,1,.03.255.428.428,0,0,1-.137.227.532.532,0,0,1-.258.121.571.571,0,0,1-.292-.025.494.494,0,0,1-.227-.163.4.4,0,0,1-.085-.246.4.4,0,0,1,.038-.169.442.442,0,0,1,.109-.143.517.517,0,0,1,.164-.1.566.566,0,0,1,.193-.034Zm.06,1.424c.615.131,1.7,2.482,1.7,2.482h-3.454s1.137-2.615,1.764-2.482Z" transform="translate(-96.785 -38.493)" fill="#464353"/>
    <path id="Trazado_169" data-name="Trazado 169" d="M225.2,125.757H91.168q.295-2.464.691-4.917l3.388-20.663a10.6,10.6,0,0,1,4.169-6.661,13.52,13.52,0,0,1,8.129-2.654h5.145a13.25,13.25,0,0,1,7.234,2.131c5.329,3.482,20.469,5.994,38.317,5.994s32.995-2.5,38.335-5.994a13.253,13.253,0,0,1,7.234-2.131h8.334a8.115,8.115,0,0,1,4.79,1.526,6.4,6.4,0,0,1,2.548,3.865l4.548,22.583Q224.72,122.29,225.2,125.757Z" transform="translate(-41.177 -41.249)" fill="#fff" opacity="0.03"/>
    <path id="Trazado_170" data-name="Trazado 170" d="M129.749,19.18l.361,8.337,10.474-8.337Z" transform="translate(-58.603 -8.874)" fill="#fff"/>
    <path id="Trazado_171" data-name="Trazado 171" d="M129.749,19.18l.361,8.337,10.474-8.337Z" transform="translate(-58.603 -8.874)" opacity="0.03"/>
  </g>
</svg>
