<svg viewBox="0 0 424 264" fill="none" xmlns="http://www.w3.org/2000/svg">
<g clip-path="url(#clip0)">
<path opacity="0.1" d="M246.346 40.9618C219.164 40.1345 193.275 32.453 168.555 24.0472C143.834 15.6414 119.348 6.32735 92.8173 1.8744C75.7529 -0.990053 56.2358 -1.39453 42.4895 6.61048C29.2555 14.3324 24.9799 27.625 22.6826 39.9727C20.9522 49.261 19.9358 59.0347 24.6733 67.731C27.9661 73.7688 33.804 78.8432 37.8443 84.6272C51.9015 104.748 41.9645 129.561 26.7355 149.208C19.5956 158.426 11.3008 167.226 5.78624 177.029C0.271731 186.832 -2.27763 198.08 2.54809 208.089C7.32762 218.017 18.722 225.46 31.0656 230.699C56.135 241.341 85.6648 244.389 114.481 246.114C178.248 249.934 242.352 248.28 306.287 246.625C329.95 246.011 353.713 245.389 376.989 242.187C389.916 240.407 403.26 237.583 412.646 230.788C424.557 222.135 427.51 207.482 419.526 196.635C406.136 178.437 369.127 173.918 359.757 154.385C354.607 143.637 359.895 131.661 367.384 121.692C383.444 100.306 410.362 81.5421 411.777 57.0969C412.751 40.3036 399.811 23.4883 379.803 15.5458C358.833 7.2172 329.748 8.26517 314.284 22.0506C298.345 36.2294 270.348 41.6899 246.346 40.9618Z" fill="#4F8A8B"/>
<g opacity="0.2">
<path opacity="0.2" d="M290.442 182.659C290.188 183.281 289.994 183.921 289.863 184.571C294.74 185.53 299.619 186.57 304.499 187.693C304.575 187.535 304.651 187.366 304.722 187.197C305.467 185.452 305.669 183.565 305.306 181.729C304.806 179.376 303.281 177.478 300.976 176.746C298.67 176.015 296.12 176.61 294.012 178.129C292.384 179.335 291.152 180.898 290.442 182.659Z" fill="#3F3D56"/>
<path opacity="0.2" d="M308.863 177.193C310.738 172.675 309.061 167.996 305.12 166.743C301.178 165.489 296.463 168.136 294.589 172.654C292.714 177.172 294.391 181.851 298.332 183.105C302.274 184.358 306.989 181.711 308.863 177.193Z" fill="#3F3D56"/>
<path opacity="0.2" d="M312.556 166.89C314.423 162.372 312.74 157.697 308.798 156.449C304.856 155.2 300.147 157.851 298.28 162.37C296.413 166.888 298.096 171.563 302.038 172.811C305.98 174.06 310.689 171.409 312.556 166.89Z" fill="#3F3D56"/>
<path opacity="0.2" d="M317.159 157.194C319.034 152.675 317.357 147.997 313.416 146.743C309.474 145.49 304.759 148.137 302.885 152.655C301.01 157.173 302.686 161.852 306.628 163.105C310.57 164.358 315.285 161.712 317.159 157.194Z" fill="#3F3D56"/>
<path opacity="0.2" d="M321.306 147.196C323.18 142.678 321.504 137.999 317.562 136.746C313.62 135.492 308.905 138.139 307.031 142.657C305.157 147.175 306.833 151.854 310.775 153.107C314.717 154.361 319.432 151.714 321.306 147.196Z" fill="#3F3D56"/>
<path opacity="0.2" d="M369.28 85.0032C370.707 84.2291 372.071 83.369 373.362 82.4292L355.723 73.7697L375.954 80.3517C379.439 77.2644 382.168 73.5868 383.973 69.5441C385.779 65.5014 386.623 61.1786 386.454 56.8404L354.114 60.5469L385.912 52.3764C385.038 48.0699 383.16 43.9672 380.396 40.3238C377.632 36.6805 374.04 33.5747 369.845 31.2C365.649 28.8252 360.94 27.2325 356.011 26.521C351.082 25.8094 346.038 25.9944 341.194 27.0643C336.35 28.1343 331.809 30.0663 327.855 32.7398C323.901 35.4134 320.619 38.7714 318.212 42.6043C315.806 46.4373 314.327 50.6631 313.867 55.0185C313.408 59.3739 313.978 63.7654 315.542 67.9194C313.322 69.1283 311.256 70.5422 309.381 72.1371L329.12 90.9527L306.327 75.064C302.55 79.2034 300.011 84.102 298.94 89.3166C297.87 94.5313 298.301 99.8973 300.195 104.929C294.399 108.085 289.733 112.604 286.732 117.971C283.73 123.338 282.514 129.337 283.222 135.28C283.931 141.224 286.535 146.873 290.737 151.582C294.939 156.291 300.57 159.87 306.986 161.91C313.402 163.95 320.344 164.368 327.018 163.117C333.692 161.866 339.83 158.995 344.729 154.835C349.628 150.674 353.092 145.39 354.723 139.587C356.354 133.784 356.088 127.697 353.954 122.02C360.883 118.25 366.163 112.551 368.948 105.838C371.732 99.1248 371.86 91.7872 369.309 85.0032H369.28Z" fill="#6C63FF"/>
<path opacity="0.1" d="M300.543 84.0913C297.746 90.8035 297.619 98.1459 300.182 104.929C294.385 108.085 289.719 112.604 286.718 117.971C283.717 123.338 282.501 129.337 283.209 135.28C283.917 141.224 286.521 146.873 290.724 151.582C294.926 156.291 300.557 159.87 306.973 161.91C313.388 163.95 320.33 164.368 327.004 163.117C333.679 161.866 339.816 158.995 344.716 154.835C349.615 150.674 353.078 145.39 354.71 139.587C356.341 133.784 356.075 127.697 353.941 122.02C360.623 118.395 301.937 80.7341 300.543 84.0913Z" fill="black"/>
</g>
<path d="M312.727 65.5882H115.847C114.126 65.5882 112.73 66.8097 112.73 68.3166V101.23C112.73 102.737 114.126 103.959 115.847 103.959H312.727C314.448 103.959 315.843 102.737 315.843 101.23V68.3166C315.843 66.8097 314.448 65.5882 312.727 65.5882Z" fill="#35323E"/>
<path d="M129.921 19.176C129.921 19.176 132.806 87.875 127.691 95.9168H300.619C300.619 95.9168 293.273 43.0734 300.619 19.176H129.921Z" fill="white"/>
<path opacity="0.03" d="M129.921 19.176C129.921 19.176 132.806 87.875 127.691 95.9168H300.619C300.619 95.9168 293.273 43.0734 300.619 19.176H129.921Z" fill="black"/>
<path d="M274.382 92.9898H147.632V106.775H274.382V92.9898Z" fill="#35323E"/>
<path d="M330.816 255.26H95.8887C94.1269 255.26 92.385 254.935 90.7766 254.305C89.1682 253.676 87.7296 252.756 86.5547 251.607C85.3798 250.457 84.4951 249.104 83.9585 247.635C83.4218 246.166 83.2451 244.614 83.4401 243.081L88.2448 205.174C88.5612 202.654 88.7894 200.128 88.9294 197.596L89.8324 171.893C90.0396 166.085 90.4876 160.293 91.1764 154.515C91.5348 151.519 91.9548 148.53 92.4363 145.546L98.6144 107.864C99.4009 103.146 102.1 98.8345 106.217 95.7155C110.335 92.5964 115.597 90.8785 121.042 90.8755H130.425C135.186 90.8901 139.814 92.2536 143.617 94.7622C153.335 101.112 180.946 105.694 213.495 105.694C246.045 105.694 273.659 101.112 283.399 94.7475C287.202 92.2389 291.83 90.8754 296.591 90.8608H311.79C314.985 90.8608 318.078 91.8464 320.525 93.6446C322.972 95.4429 324.617 97.9386 325.171 100.693L333.466 141.877C334.306 146.064 335.019 150.268 335.604 154.489C336.578 161.507 337.19 168.556 337.439 175.636L338.279 199.519C338.455 204.499 338.947 209.467 339.754 214.4L344.21 241.724C344.487 243.405 344.348 245.119 343.802 246.749C343.255 248.379 342.315 249.887 341.045 251.171C339.775 252.455 338.204 253.484 336.439 254.19C334.674 254.895 332.756 255.26 330.816 255.26Z" fill="#464353"/>
<path opacity="0.1" d="M317.435 159.909H109.832C105.203 159.909 101.449 163.195 101.449 167.249V237.007C101.449 241.06 105.203 244.346 109.832 244.346H317.435C322.065 244.346 325.818 241.06 325.818 237.007V167.249C325.818 163.195 322.065 159.909 317.435 159.909Z" fill="black"/>
<path d="M115.88 174.496C119.432 174.496 122.31 172.387 122.31 169.786C122.31 167.184 119.432 165.075 115.88 165.075C112.329 165.075 109.45 167.184 109.45 169.786C109.45 172.387 112.329 174.496 115.88 174.496Z" fill="#4F8A8B"/>
<path opacity="0.1" d="M115.88 174.496C119.432 174.496 122.31 172.387 122.31 169.786C122.31 167.184 119.432 165.075 115.88 165.075C112.329 165.075 109.45 167.184 109.45 169.786C109.45 172.387 112.329 174.496 115.88 174.496Z" fill="black"/>
<path d="M115.88 173.463C119.432 173.463 122.31 171.354 122.31 168.752C122.31 166.151 119.432 164.042 115.88 164.042C112.329 164.042 109.45 166.151 109.45 168.752C109.45 171.354 112.329 173.463 115.88 173.463Z" fill="#4F8A8B"/>
<path d="M123.491 190.925C127.042 190.925 129.921 188.816 129.921 186.215C129.921 183.614 127.042 181.505 123.491 181.505C119.939 181.505 117.061 183.614 117.061 186.215C117.061 188.816 119.939 190.925 123.491 190.925Z" fill="#35323E"/>
<path opacity="0.1" d="M123.491 190.925C127.042 190.925 129.921 188.816 129.921 186.215C129.921 183.614 127.042 181.505 123.491 181.505C119.939 181.505 117.061 183.614 117.061 186.215C117.061 188.816 119.939 190.925 123.491 190.925Z" fill="black"/>
<path d="M123.491 189.892C127.042 189.892 129.921 187.783 129.921 185.182C129.921 182.58 127.042 180.471 123.491 180.471C119.939 180.471 117.061 182.58 117.061 185.182C117.061 187.783 119.939 189.892 123.491 189.892Z" fill="#35323E"/>
<path d="M127.691 207.354C131.242 207.354 134.121 205.246 134.121 202.644C134.121 200.043 131.242 197.934 127.691 197.934C124.139 197.934 121.26 200.043 121.26 202.644C121.26 205.246 124.139 207.354 127.691 207.354Z" fill="#35323E"/>
<path opacity="0.1" d="M127.691 207.354C131.242 207.354 134.121 205.246 134.121 202.644C134.121 200.043 131.242 197.934 127.691 197.934C124.139 197.934 121.26 200.043 121.26 202.644C121.26 205.246 124.139 207.354 127.691 207.354Z" fill="black"/>
<path d="M127.691 206.321C131.242 206.321 134.121 204.212 134.121 201.611C134.121 199.009 131.242 196.901 127.691 196.901C124.139 196.901 121.26 199.009 121.26 201.611C121.26 204.212 124.139 206.321 127.691 206.321Z" fill="#35323E"/>
<path d="M111.42 209.307C114.971 209.307 117.85 207.198 117.85 204.597C117.85 201.995 114.971 199.886 111.42 199.886C107.869 199.886 104.99 201.995 104.99 204.597C104.99 207.198 107.869 209.307 111.42 209.307Z" fill="#35323E"/>
<path opacity="0.1" d="M111.42 209.307C114.971 209.307 117.85 207.198 117.85 204.597C117.85 201.995 114.971 199.886 111.42 199.886C107.869 199.886 104.99 201.995 104.99 204.597C104.99 207.198 107.869 209.307 111.42 209.307Z" fill="black"/>
<path d="M111.42 208.274C114.971 208.274 117.85 206.165 117.85 203.563C117.85 200.962 114.971 198.853 111.42 198.853C107.869 198.853 104.99 200.962 104.99 203.563C104.99 206.165 107.869 208.274 111.42 208.274Z" fill="#35323E"/>
<path d="M135.561 223.78C139.112 223.78 141.991 221.671 141.991 219.07C141.991 216.468 139.112 214.359 135.561 214.359C132.01 214.359 129.131 216.468 129.131 219.07C129.131 221.671 132.01 223.78 135.561 223.78Z" fill="#35323E"/>
<path opacity="0.1" d="M135.561 223.78C139.112 223.78 141.991 221.671 141.991 219.07C141.991 216.468 139.112 214.359 135.561 214.359C132.01 214.359 129.131 216.468 129.131 219.07C129.131 221.671 132.01 223.78 135.561 223.78Z" fill="black"/>
<path d="M135.561 222.747C139.112 222.747 141.991 220.638 141.991 218.036C141.991 215.435 139.112 213.326 135.561 213.326C132.01 213.326 129.131 215.435 129.131 218.036C129.131 220.638 132.01 222.747 135.561 222.747Z" fill="#35323E"/>
<path d="M114.045 224.357C117.596 224.357 120.475 222.248 120.475 219.647C120.475 217.046 117.596 214.937 114.045 214.937C110.494 214.937 107.615 217.046 107.615 219.647C107.615 222.248 110.494 224.357 114.045 224.357Z" fill="#35323E"/>
<path opacity="0.1" d="M114.045 224.357C117.596 224.357 120.475 222.248 120.475 219.647C120.475 217.046 117.596 214.937 114.045 214.937C110.494 214.937 107.615 217.046 107.615 219.647C107.615 222.248 110.494 224.357 114.045 224.357Z" fill="black"/>
<path d="M114.045 223.32C117.596 223.32 120.475 221.212 120.475 218.61C120.475 216.009 117.596 213.9 114.045 213.9C110.494 213.9 107.615 216.009 107.615 218.61C107.615 221.212 110.494 223.32 114.045 223.32Z" fill="#35323E"/>
<path d="M153.277 223.78C156.828 223.78 159.707 221.671 159.707 219.07C159.707 216.468 156.828 214.359 153.277 214.359C149.725 214.359 146.846 216.468 146.846 219.07C146.846 221.671 149.725 223.78 153.277 223.78Z" fill="#35323E"/>
<path opacity="0.1" d="M153.277 223.78C156.828 223.78 159.707 221.671 159.707 219.07C159.707 216.468 156.828 214.359 153.277 214.359C149.725 214.359 146.846 216.468 146.846 219.07C146.846 221.671 149.725 223.78 153.277 223.78Z" fill="black"/>
<path d="M153.277 222.747C156.828 222.747 159.707 220.638 159.707 218.036C159.707 215.435 156.828 213.326 153.277 213.326C149.725 213.326 146.846 215.435 146.846 218.036C146.846 220.638 149.725 222.747 153.277 222.747Z" fill="#35323E"/>
<path d="M172.038 223.78C175.589 223.78 178.468 221.671 178.468 219.07C178.468 216.468 175.589 214.359 172.038 214.359C168.486 214.359 165.608 216.468 165.608 219.07C165.608 221.671 168.486 223.78 172.038 223.78Z" fill="#35323E"/>
<path opacity="0.1" d="M172.038 223.78C175.589 223.78 178.468 221.671 178.468 219.07C178.468 216.468 175.589 214.359 172.038 214.359C168.486 214.359 165.608 216.468 165.608 219.07C165.608 221.671 168.486 223.78 172.038 223.78Z" fill="black"/>
<path d="M172.038 222.747C175.589 222.747 178.468 220.638 178.468 218.036C178.468 215.435 175.589 213.326 172.038 213.326C168.486 213.326 165.608 215.435 165.608 218.036C165.608 220.638 168.486 222.747 172.038 222.747Z" fill="#35323E"/>
<path d="M189.358 223.78C192.909 223.78 195.788 221.671 195.788 219.07C195.788 216.468 192.909 214.359 189.358 214.359C185.807 214.359 182.928 216.468 182.928 219.07C182.928 221.671 185.807 223.78 189.358 223.78Z" fill="#35323E"/>
<path opacity="0.1" d="M189.358 223.78C192.909 223.78 195.788 221.671 195.788 219.07C195.788 216.468 192.909 214.359 189.358 214.359C185.807 214.359 182.928 216.468 182.928 219.07C182.928 221.671 185.807 223.78 189.358 223.78Z" fill="black"/>
<path d="M189.358 222.747C192.909 222.747 195.788 220.638 195.788 218.036C195.788 215.435 192.909 213.326 189.358 213.326C185.807 213.326 182.928 215.435 182.928 218.036C182.928 220.638 185.807 222.747 189.358 222.747Z" fill="#35323E"/>
<path d="M208.514 223.78C212.065 223.78 214.944 221.671 214.944 219.07C214.944 216.468 212.065 214.359 208.514 214.359C204.963 214.359 202.084 216.468 202.084 219.07C202.084 221.671 204.963 223.78 208.514 223.78Z" fill="#35323E"/>
<path opacity="0.1" d="M208.514 223.78C212.065 223.78 214.944 221.671 214.944 219.07C214.944 216.468 212.065 214.359 208.514 214.359C204.963 214.359 202.084 216.468 202.084 219.07C202.084 221.671 204.963 223.78 208.514 223.78Z" fill="black"/>
<path d="M208.514 222.747C212.065 222.747 214.944 220.638 214.944 218.036C214.944 215.435 212.065 213.326 208.514 213.326C204.963 213.326 202.084 215.435 202.084 218.036C202.084 220.638 204.963 222.747 208.514 222.747Z" fill="#35323E"/>
<path d="M225.835 223.78C229.386 223.78 232.265 221.671 232.265 219.07C232.265 216.468 229.386 214.359 225.835 214.359C222.283 214.359 219.405 216.468 219.405 219.07C219.405 221.671 222.283 223.78 225.835 223.78Z" fill="#35323E"/>
<path opacity="0.1" d="M225.835 223.78C229.386 223.78 232.265 221.671 232.265 219.07C232.265 216.468 229.386 214.359 225.835 214.359C222.283 214.359 219.405 216.468 219.405 219.07C219.405 221.671 222.283 223.78 225.835 223.78Z" fill="black"/>
<path d="M225.835 222.747C229.386 222.747 232.265 220.638 232.265 218.036C232.265 215.435 229.386 213.326 225.835 213.326C222.283 213.326 219.405 215.435 219.405 218.036C219.405 220.638 222.283 222.747 225.835 222.747Z" fill="#35323E"/>
<path d="M243.021 223.78C246.572 223.78 249.451 221.671 249.451 219.07C249.451 216.468 246.572 214.359 243.021 214.359C239.469 214.359 236.591 216.468 236.591 219.07C236.591 221.671 239.469 223.78 243.021 223.78Z" fill="#35323E"/>
<path opacity="0.1" d="M243.021 223.78C246.572 223.78 249.451 221.671 249.451 219.07C249.451 216.468 246.572 214.359 243.021 214.359C239.469 214.359 236.591 216.468 236.591 219.07C236.591 221.671 239.469 223.78 243.021 223.78Z" fill="black"/>
<path d="M243.021 222.747C246.572 222.747 249.451 220.638 249.451 218.036C249.451 215.435 246.572 213.326 243.021 213.326C239.469 213.326 236.591 215.435 236.591 218.036C236.591 220.638 239.469 222.747 243.021 222.747Z" fill="#35323E"/>
<path d="M261.656 223.78C265.207 223.78 268.086 221.671 268.086 219.07C268.086 216.468 265.207 214.359 261.656 214.359C258.105 214.359 255.226 216.468 255.226 219.07C255.226 221.671 258.105 223.78 261.656 223.78Z" fill="#35323E"/>
<path opacity="0.1" d="M261.656 223.78C265.207 223.78 268.086 221.671 268.086 219.07C268.086 216.468 265.207 214.359 261.656 214.359C258.105 214.359 255.226 216.468 255.226 219.07C255.226 221.671 258.105 223.78 261.656 223.78Z" fill="black"/>
<path d="M261.656 222.747C265.207 222.747 268.086 220.638 268.086 218.036C268.086 215.435 265.207 213.326 261.656 213.326C258.105 213.326 255.226 215.435 255.226 218.036C255.226 220.638 258.105 222.747 261.656 222.747Z" fill="#35323E"/>
<path d="M279.107 223.78C282.658 223.78 285.537 221.671 285.537 219.07C285.537 216.468 282.658 214.359 279.107 214.359C275.555 214.359 272.677 216.468 272.677 219.07C272.677 221.671 275.555 223.78 279.107 223.78Z" fill="#35323E"/>
<path opacity="0.1" d="M279.107 223.78C282.658 223.78 285.537 221.671 285.537 219.07C285.537 216.468 282.658 214.359 279.107 214.359C275.555 214.359 272.677 216.468 272.677 219.07C272.677 221.671 275.555 223.78 279.107 223.78Z" fill="black"/>
<path d="M279.107 222.747C282.658 222.747 285.537 220.638 285.537 218.036C285.537 215.435 282.658 213.326 279.107 213.326C275.555 213.326 272.677 215.435 272.677 218.036C272.677 220.638 275.555 222.747 279.107 222.747Z" fill="#35323E"/>
<path d="M298.393 223.78C301.944 223.78 304.823 221.671 304.823 219.07C304.823 216.468 301.944 214.359 298.393 214.359C294.841 214.359 291.963 216.468 291.963 219.07C291.963 221.671 294.841 223.78 298.393 223.78Z" fill="#35323E"/>
<path opacity="0.1" d="M298.393 223.78C301.944 223.78 304.823 221.671 304.823 219.07C304.823 216.468 301.944 214.359 298.393 214.359C294.841 214.359 291.963 216.468 291.963 219.07C291.963 221.671 294.841 223.78 298.393 223.78Z" fill="black"/>
<path d="M298.393 222.747C301.944 222.747 304.823 220.638 304.823 218.036C304.823 215.435 301.944 213.326 298.393 213.326C294.841 213.326 291.963 215.435 291.963 218.036C291.963 220.638 294.841 222.747 298.393 222.747Z" fill="#35323E"/>
<path d="M318.208 223.78C321.759 223.78 324.638 221.671 324.638 219.07C324.638 216.468 321.759 214.359 318.208 214.359C314.657 214.359 311.778 216.468 311.778 219.07C311.778 221.671 314.657 223.78 318.208 223.78Z" fill="#35323E"/>
<path opacity="0.1" d="M318.208 223.78C321.759 223.78 324.638 221.671 324.638 219.07C324.638 216.468 321.759 214.359 318.208 214.359C314.657 214.359 311.778 216.468 311.778 219.07C311.778 221.671 314.657 223.78 318.208 223.78Z" fill="black"/>
<path d="M318.208 222.747C321.759 222.747 324.638 220.638 324.638 218.036C324.638 215.435 321.759 213.326 318.208 213.326C314.657 213.326 311.778 215.435 311.778 218.036C311.778 220.638 314.657 222.747 318.208 222.747Z" fill="#35323E"/>
<path d="M145.536 207.354C149.087 207.354 151.966 205.246 151.966 202.644C151.966 200.043 149.087 197.934 145.536 197.934C141.985 197.934 139.106 200.043 139.106 202.644C139.106 205.246 141.985 207.354 145.536 207.354Z" fill="#35323E"/>
<path opacity="0.1" d="M145.536 207.354C149.087 207.354 151.966 205.246 151.966 202.644C151.966 200.043 149.087 197.934 145.536 197.934C141.985 197.934 139.106 200.043 139.106 202.644C139.106 205.246 141.985 207.354 145.536 207.354Z" fill="black"/>
<path d="M145.536 206.321C149.087 206.321 151.966 204.212 151.966 201.611C151.966 199.009 149.087 196.901 145.536 196.901C141.985 196.901 139.106 199.009 139.106 201.611C139.106 204.212 141.985 206.321 145.536 206.321Z" fill="#35323E"/>
<path d="M163.377 207.354C166.929 207.354 169.807 205.246 169.807 202.644C169.807 200.043 166.929 197.934 163.377 197.934C159.826 197.934 156.947 200.043 156.947 202.644C156.947 205.246 159.826 207.354 163.377 207.354Z" fill="#35323E"/>
<path opacity="0.1" d="M163.377 207.354C166.929 207.354 169.807 205.246 169.807 202.644C169.807 200.043 166.929 197.934 163.377 197.934C159.826 197.934 156.947 200.043 156.947 202.644C156.947 205.246 159.826 207.354 163.377 207.354Z" fill="black"/>
<path d="M163.377 206.321C166.929 206.321 169.807 204.212 169.807 201.611C169.807 199.009 166.929 196.901 163.377 196.901C159.826 196.901 156.947 199.009 156.947 201.611C156.947 204.212 159.826 206.321 163.377 206.321Z" fill="#35323E"/>
<path d="M181.748 207.354C185.299 207.354 188.178 205.246 188.178 202.644C188.178 200.043 185.299 197.934 181.748 197.934C178.197 197.934 175.318 200.043 175.318 202.644C175.318 205.246 178.197 207.354 181.748 207.354Z" fill="#35323E"/>
<path opacity="0.1" d="M181.748 207.354C185.299 207.354 188.178 205.246 188.178 202.644C188.178 200.043 185.299 197.934 181.748 197.934C178.197 197.934 175.318 200.043 175.318 202.644C175.318 205.246 178.197 207.354 181.748 207.354Z" fill="black"/>
<path d="M181.748 206.321C185.299 206.321 188.178 204.212 188.178 201.611C188.178 199.009 185.299 196.901 181.748 196.901C178.197 196.901 175.318 199.009 175.318 201.611C175.318 204.212 178.197 206.321 181.748 206.321Z" fill="#35323E"/>
<path d="M199.329 207.354C202.88 207.354 205.759 205.246 205.759 202.644C205.759 200.043 202.88 197.934 199.329 197.934C195.778 197.934 192.899 200.043 192.899 202.644C192.899 205.246 195.778 207.354 199.329 207.354Z" fill="#35323E"/>
<path opacity="0.1" d="M199.329 207.354C202.88 207.354 205.759 205.246 205.759 202.644C205.759 200.043 202.88 197.934 199.329 197.934C195.778 197.934 192.899 200.043 192.899 202.644C192.899 205.246 195.778 207.354 199.329 207.354Z" fill="black"/>
<path d="M199.329 206.321C202.88 206.321 205.759 204.212 205.759 201.611C205.759 199.009 202.88 196.901 199.329 196.901C195.778 196.901 192.899 199.009 192.899 201.611C192.899 204.212 195.778 206.321 199.329 206.321Z" fill="#35323E"/>
<path d="M217.304 207.354C220.856 207.354 223.735 205.246 223.735 202.644C223.735 200.043 220.856 197.934 217.304 197.934C213.753 197.934 210.874 200.043 210.874 202.644C210.874 205.246 213.753 207.354 217.304 207.354Z" fill="#35323E"/>
<path opacity="0.1" d="M217.304 207.354C220.856 207.354 223.735 205.246 223.735 202.644C223.735 200.043 220.856 197.934 217.304 197.934C213.753 197.934 210.874 200.043 210.874 202.644C210.874 205.246 213.753 207.354 217.304 207.354Z" fill="black"/>
<path d="M217.304 206.321C220.856 206.321 223.735 204.212 223.735 201.611C223.735 199.009 220.856 196.901 217.304 196.901C213.753 196.901 210.874 199.009 210.874 201.611C210.874 204.212 213.753 206.321 217.304 206.321Z" fill="#35323E"/>
<path d="M234.495 207.354C238.046 207.354 240.925 205.246 240.925 202.644C240.925 200.043 238.046 197.934 234.495 197.934C230.944 197.934 228.065 200.043 228.065 202.644C228.065 205.246 230.944 207.354 234.495 207.354Z" fill="#35323E"/>
<path opacity="0.1" d="M234.495 207.354C238.046 207.354 240.925 205.246 240.925 202.644C240.925 200.043 238.046 197.934 234.495 197.934C230.944 197.934 228.065 200.043 228.065 202.644C228.065 205.246 230.944 207.354 234.495 207.354Z" fill="black"/>
<path d="M234.495 206.321C238.046 206.321 240.925 204.212 240.925 201.611C240.925 199.009 238.046 196.901 234.495 196.901C230.944 196.901 228.065 199.009 228.065 201.611C228.065 204.212 230.944 206.321 234.495 206.321Z" fill="#35323E"/>
<path d="M253.126 207.354C256.677 207.354 259.556 205.246 259.556 202.644C259.556 200.043 256.677 197.934 253.126 197.934C249.575 197.934 246.696 200.043 246.696 202.644C246.696 205.246 249.575 207.354 253.126 207.354Z" fill="#35323E"/>
<path opacity="0.1" d="M253.126 207.354C256.677 207.354 259.556 205.246 259.556 202.644C259.556 200.043 256.677 197.934 253.126 197.934C249.575 197.934 246.696 200.043 246.696 202.644C246.696 205.246 249.575 207.354 253.126 207.354Z" fill="black"/>
<path d="M253.126 206.321C256.677 206.321 259.556 204.212 259.556 201.611C259.556 199.009 256.677 196.901 253.126 196.901C249.575 196.901 246.696 199.009 246.696 201.611C246.696 204.212 249.575 206.321 253.126 206.321Z" fill="#35323E"/>
<path d="M270.841 207.354C274.392 207.354 277.271 205.246 277.271 202.644C277.271 200.043 274.392 197.934 270.841 197.934C267.29 197.934 264.411 200.043 264.411 202.644C264.411 205.246 267.29 207.354 270.841 207.354Z" fill="#35323E"/>
<path opacity="0.1" d="M270.841 207.354C274.392 207.354 277.271 205.246 277.271 202.644C277.271 200.043 274.392 197.934 270.841 197.934C267.29 197.934 264.411 200.043 264.411 202.644C264.411 205.246 267.29 207.354 270.841 207.354Z" fill="black"/>
<path d="M270.841 206.321C274.392 206.321 277.271 204.212 277.271 201.611C277.271 199.009 274.392 196.901 270.841 196.901C267.29 196.901 264.411 199.009 264.411 201.611C264.411 204.212 267.29 206.321 270.841 206.321Z" fill="#35323E"/>
<path d="M288.947 207.354C292.498 207.354 295.377 205.246 295.377 202.644C295.377 200.043 292.498 197.934 288.947 197.934C285.396 197.934 282.517 200.043 282.517 202.644C282.517 205.246 285.396 207.354 288.947 207.354Z" fill="#35323E"/>
<path opacity="0.1" d="M288.947 207.354C292.498 207.354 295.377 205.246 295.377 202.644C295.377 200.043 292.498 197.934 288.947 197.934C285.396 197.934 282.517 200.043 282.517 202.644C282.517 205.246 285.396 207.354 288.947 207.354Z" fill="black"/>
<path d="M288.947 206.321C292.498 206.321 295.377 204.212 295.377 201.611C295.377 199.009 292.498 196.901 288.947 196.901C285.396 196.901 282.517 199.009 282.517 201.611C282.517 204.212 285.396 206.321 288.947 206.321Z" fill="#35323E"/>
<path d="M307.053 207.354C310.604 207.354 313.483 205.246 313.483 202.644C313.483 200.043 310.604 197.934 307.053 197.934C303.502 197.934 300.623 200.043 300.623 202.644C300.623 205.246 303.502 207.354 307.053 207.354Z" fill="#35323E"/>
<path opacity="0.1" d="M307.053 207.354C310.604 207.354 313.483 205.246 313.483 202.644C313.483 200.043 310.604 197.934 307.053 197.934C303.502 197.934 300.623 200.043 300.623 202.644C300.623 205.246 303.502 207.354 307.053 207.354Z" fill="black"/>
<path d="M307.053 206.321C310.604 206.321 313.483 204.212 313.483 201.611C313.483 199.009 310.604 196.901 307.053 196.901C303.502 196.901 300.623 199.009 300.623 201.611C300.623 204.212 303.502 206.321 307.053 206.321Z" fill="#35323E"/>
<path d="M141.597 190.925C145.148 190.925 148.027 188.816 148.027 186.215C148.027 183.614 145.148 181.505 141.597 181.505C138.045 181.505 135.166 183.614 135.166 186.215C135.166 188.816 138.045 190.925 141.597 190.925Z" fill="#35323E"/>
<path opacity="0.1" d="M141.597 190.925C145.148 190.925 148.027 188.816 148.027 186.215C148.027 183.614 145.148 181.505 141.597 181.505C138.045 181.505 135.166 183.614 135.166 186.215C135.166 188.816 138.045 190.925 141.597 190.925Z" fill="black"/>
<path d="M141.597 189.892C145.148 189.892 148.027 187.783 148.027 185.182C148.027 182.58 145.148 180.471 141.597 180.471C138.045 180.471 135.166 182.58 135.166 185.182C135.166 187.783 138.045 189.892 141.597 189.892Z" fill="#35323E"/>
<path d="M159.707 190.925C163.258 190.925 166.137 188.816 166.137 186.215C166.137 183.614 163.258 181.505 159.707 181.505C156.155 181.505 153.277 183.614 153.277 186.215C153.277 188.816 156.155 190.925 159.707 190.925Z" fill="#35323E"/>
<path opacity="0.1" d="M159.707 190.925C163.258 190.925 166.137 188.816 166.137 186.215C166.137 183.614 163.258 181.505 159.707 181.505C156.155 181.505 153.277 183.614 153.277 186.215C153.277 188.816 156.155 190.925 159.707 190.925Z" fill="black"/>
<path d="M159.707 189.892C163.258 189.892 166.137 187.783 166.137 185.182C166.137 182.58 163.258 180.471 159.707 180.471C156.155 180.471 153.277 182.58 153.277 185.182C153.277 187.783 156.155 189.892 159.707 189.892Z" fill="#35323E"/>
<path d="M177.157 190.925C180.709 190.925 183.587 188.816 183.587 186.215C183.587 183.614 180.709 181.505 177.157 181.505C173.606 181.505 170.727 183.614 170.727 186.215C170.727 188.816 173.606 190.925 177.157 190.925Z" fill="#35323E"/>
<path opacity="0.1" d="M177.157 190.925C180.709 190.925 183.587 188.816 183.587 186.215C183.587 183.614 180.709 181.505 177.157 181.505C173.606 181.505 170.727 183.614 170.727 186.215C170.727 188.816 173.606 190.925 177.157 190.925Z" fill="black"/>
<path d="M177.157 189.892C180.709 189.892 183.587 187.783 183.587 185.182C183.587 182.58 180.709 180.471 177.157 180.471C173.606 180.471 170.727 182.58 170.727 185.182C170.727 187.783 173.606 189.892 177.157 189.892Z" fill="#35323E"/>
<path d="M194.608 190.925C198.159 190.925 201.038 188.816 201.038 186.215C201.038 183.614 198.159 181.505 194.608 181.505C191.057 181.505 188.178 183.614 188.178 186.215C188.178 188.816 191.057 190.925 194.608 190.925Z" fill="#35323E"/>
<path opacity="0.1" d="M194.608 190.925C198.159 190.925 201.038 188.816 201.038 186.215C201.038 183.614 198.159 181.505 194.608 181.505C191.057 181.505 188.178 183.614 188.178 186.215C188.178 188.816 191.057 190.925 194.608 190.925Z" fill="black"/>
<path d="M194.608 189.892C198.159 189.892 201.038 187.783 201.038 185.182C201.038 182.58 198.159 180.471 194.608 180.471C191.057 180.471 188.178 182.58 188.178 185.182C188.178 187.783 191.057 189.892 194.608 189.892Z" fill="#35323E"/>
<path d="M212.189 190.925C215.74 190.925 218.619 188.816 218.619 186.215C218.619 183.614 215.74 181.505 212.189 181.505C208.638 181.505 205.759 183.614 205.759 186.215C205.759 188.816 208.638 190.925 212.189 190.925Z" fill="#35323E"/>
<path opacity="0.1" d="M212.189 190.925C215.74 190.925 218.619 188.816 218.619 186.215C218.619 183.614 215.74 181.505 212.189 181.505C208.638 181.505 205.759 183.614 205.759 186.215C205.759 188.816 208.638 190.925 212.189 190.925Z" fill="black"/>
<path d="M212.189 189.892C215.74 189.892 218.619 187.783 218.619 185.182C218.619 182.58 215.74 180.471 212.189 180.471C208.638 180.471 205.759 182.58 205.759 185.182C205.759 187.783 208.638 189.892 212.189 189.892Z" fill="#35323E"/>
<path d="M229.51 190.925C233.061 190.925 235.94 188.816 235.94 186.215C235.94 183.614 233.061 181.505 229.51 181.505C225.958 181.505 223.079 183.614 223.079 186.215C223.079 188.816 225.958 190.925 229.51 190.925Z" fill="#35323E"/>
<path opacity="0.1" d="M229.51 190.925C233.061 190.925 235.94 188.816 235.94 186.215C235.94 183.614 233.061 181.505 229.51 181.505C225.958 181.505 223.079 183.614 223.079 186.215C223.079 188.816 225.958 190.925 229.51 190.925Z" fill="black"/>
<path d="M229.51 189.892C233.061 189.892 235.94 187.783 235.94 185.182C235.94 182.58 233.061 180.471 229.51 180.471C225.958 180.471 223.079 182.58 223.079 185.182C223.079 187.783 225.958 189.892 229.51 189.892Z" fill="#35323E"/>
<path d="M247.876 190.925C251.427 190.925 254.306 188.816 254.306 186.215C254.306 183.614 251.427 181.505 247.876 181.505C244.325 181.505 241.446 183.614 241.446 186.215C241.446 188.816 244.325 190.925 247.876 190.925Z" fill="#35323E"/>
<path opacity="0.1" d="M247.876 190.925C251.427 190.925 254.306 188.816 254.306 186.215C254.306 183.614 251.427 181.505 247.876 181.505C244.325 181.505 241.446 183.614 241.446 186.215C241.446 188.816 244.325 190.925 247.876 190.925Z" fill="black"/>
<path d="M247.876 189.892C251.427 189.892 254.306 187.783 254.306 185.182C254.306 182.58 251.427 180.471 247.876 180.471C244.325 180.471 241.446 182.58 241.446 185.182C241.446 187.783 244.325 189.892 247.876 189.892Z" fill="#35323E"/>
<path d="M265.196 190.925C268.748 190.925 271.626 188.816 271.626 186.215C271.626 183.614 268.748 181.505 265.196 181.505C261.645 181.505 258.766 183.614 258.766 186.215C258.766 188.816 261.645 190.925 265.196 190.925Z" fill="#35323E"/>
<path opacity="0.1" d="M265.196 190.925C268.748 190.925 271.626 188.816 271.626 186.215C271.626 183.614 268.748 181.505 265.196 181.505C261.645 181.505 258.766 183.614 258.766 186.215C258.766 188.816 261.645 190.925 265.196 190.925Z" fill="black"/>
<path d="M265.196 189.892C268.748 189.892 271.626 187.783 271.626 185.182C271.626 182.58 268.748 180.471 265.196 180.471C261.645 180.471 258.766 182.58 258.766 185.182C258.766 187.783 261.645 189.892 265.196 189.892Z" fill="#35323E"/>
<path d="M283.697 190.925C287.248 190.925 290.127 188.816 290.127 186.215C290.127 183.614 287.248 181.505 283.697 181.505C280.146 181.505 277.267 183.614 277.267 186.215C277.267 188.816 280.146 190.925 283.697 190.925Z" fill="#35323E"/>
<path opacity="0.1" d="M283.697 190.925C287.248 190.925 290.127 188.816 290.127 186.215C290.127 183.614 287.248 181.505 283.697 181.505C280.146 181.505 277.267 183.614 277.267 186.215C277.267 188.816 280.146 190.925 283.697 190.925Z" fill="black"/>
<path d="M283.697 189.892C287.248 189.892 290.127 187.783 290.127 185.182C290.127 182.58 287.248 180.471 283.697 180.471C280.146 180.471 277.267 182.58 277.267 185.182C277.267 187.783 280.146 189.892 283.697 189.892Z" fill="#35323E"/>
<path d="M301.803 190.925C305.354 190.925 308.233 188.816 308.233 186.215C308.233 183.614 305.354 181.505 301.803 181.505C298.252 181.505 295.373 183.614 295.373 186.215C295.373 188.816 298.252 190.925 301.803 190.925Z" fill="#35323E"/>
<path opacity="0.1" d="M301.803 190.925C305.354 190.925 308.233 188.816 308.233 186.215C308.233 183.614 305.354 181.505 301.803 181.505C298.252 181.505 295.373 183.614 295.373 186.215C295.373 188.816 298.252 190.925 301.803 190.925Z" fill="black"/>
<path d="M301.803 189.892C305.354 189.892 308.233 187.783 308.233 185.182C308.233 182.58 305.354 180.471 301.803 180.471C298.252 180.471 295.373 182.58 295.373 185.182C295.373 187.783 298.252 189.892 301.803 189.892Z" fill="#35323E"/>
<path d="M132.676 174.496C136.227 174.496 139.106 172.387 139.106 169.786C139.106 167.184 136.227 165.075 132.676 165.075C129.125 165.075 126.246 167.184 126.246 169.786C126.246 172.387 129.125 174.496 132.676 174.496Z" fill="#35323E"/>
<path opacity="0.1" d="M132.676 174.496C136.227 174.496 139.106 172.387 139.106 169.786C139.106 167.184 136.227 165.075 132.676 165.075C129.125 165.075 126.246 167.184 126.246 169.786C126.246 172.387 129.125 174.496 132.676 174.496Z" fill="black"/>
<path d="M132.676 173.463C136.227 173.463 139.106 171.354 139.106 168.752C139.106 166.151 136.227 164.042 132.676 164.042C129.125 164.042 126.246 166.151 126.246 168.752C126.246 171.354 129.125 173.463 132.676 173.463Z" fill="#35323E"/>
<path d="M150.521 174.496C154.073 174.496 156.951 172.387 156.951 169.786C156.951 167.184 154.073 165.075 150.521 165.075C146.97 165.075 144.091 167.184 144.091 169.786C144.091 172.387 146.97 174.496 150.521 174.496Z" fill="#35323E"/>
<path opacity="0.1" d="M150.521 174.496C154.073 174.496 156.951 172.387 156.951 169.786C156.951 167.184 154.073 165.075 150.521 165.075C146.97 165.075 144.091 167.184 144.091 169.786C144.091 172.387 146.97 174.496 150.521 174.496Z" fill="black"/>
<path d="M150.521 173.463C154.073 173.463 156.951 171.354 156.951 168.752C156.951 166.151 154.073 164.042 150.521 164.042C146.97 164.042 144.091 166.151 144.091 168.752C144.091 171.354 146.97 173.463 150.521 173.463Z" fill="#35323E"/>
<path d="M167.708 174.496C171.259 174.496 174.138 172.387 174.138 169.786C174.138 167.184 171.259 165.075 167.708 165.075C164.156 165.075 161.277 167.184 161.277 169.786C161.277 172.387 164.156 174.496 167.708 174.496Z" fill="#35323E"/>
<path opacity="0.1" d="M167.708 174.496C171.259 174.496 174.138 172.387 174.138 169.786C174.138 167.184 171.259 165.075 167.708 165.075C164.156 165.075 161.277 167.184 161.277 169.786C161.277 172.387 164.156 174.496 167.708 174.496Z" fill="black"/>
<path d="M167.708 173.463C171.259 173.463 174.138 171.354 174.138 168.752C174.138 166.151 171.259 164.042 167.708 164.042C164.156 164.042 161.277 166.151 161.277 168.752C161.277 171.354 164.156 173.463 167.708 173.463Z" fill="#35323E"/>
<path d="M185.423 174.496C188.974 174.496 191.853 172.387 191.853 169.786C191.853 167.184 188.974 165.075 185.423 165.075C181.872 165.075 178.993 167.184 178.993 169.786C178.993 172.387 181.872 174.496 185.423 174.496Z" fill="#35323E"/>
<path opacity="0.1" d="M185.423 174.496C188.974 174.496 191.853 172.387 191.853 169.786C191.853 167.184 188.974 165.075 185.423 165.075C181.872 165.075 178.993 167.184 178.993 169.786C178.993 172.387 181.872 174.496 185.423 174.496Z" fill="black"/>
<path d="M185.423 173.463C188.974 173.463 191.853 171.354 191.853 168.752C191.853 166.151 188.974 164.042 185.423 164.042C181.872 164.042 178.993 166.151 178.993 168.752C178.993 171.354 181.872 173.463 185.423 173.463Z" fill="#35323E"/>
<path d="M202.874 174.496C206.425 174.496 209.304 172.387 209.304 169.786C209.304 167.184 206.425 165.075 202.874 165.075C199.322 165.075 196.443 167.184 196.443 169.786C196.443 172.387 199.322 174.496 202.874 174.496Z" fill="#35323E"/>
<path opacity="0.1" d="M202.874 174.496C206.425 174.496 209.304 172.387 209.304 169.786C209.304 167.184 206.425 165.075 202.874 165.075C199.322 165.075 196.443 167.184 196.443 169.786C196.443 172.387 199.322 174.496 202.874 174.496Z" fill="black"/>
<path d="M202.874 173.463C206.425 173.463 209.304 171.354 209.304 168.752C209.304 166.151 206.425 164.042 202.874 164.042C199.322 164.042 196.443 166.151 196.443 168.752C196.443 171.354 199.322 173.463 202.874 173.463Z" fill="#35323E"/>
<path d="M220.719 174.496C224.27 174.496 227.149 172.387 227.149 169.786C227.149 167.184 224.27 165.075 220.719 165.075C217.168 165.075 214.289 167.184 214.289 169.786C214.289 172.387 217.168 174.496 220.719 174.496Z" fill="#35323E"/>
<path opacity="0.1" d="M220.719 174.496C224.27 174.496 227.149 172.387 227.149 169.786C227.149 167.184 224.27 165.075 220.719 165.075C217.168 165.075 214.289 167.184 214.289 169.786C214.289 172.387 217.168 174.496 220.719 174.496Z" fill="black"/>
<path d="M220.719 173.463C224.27 173.463 227.149 171.354 227.149 168.752C227.149 166.151 224.27 164.042 220.719 164.042C217.168 164.042 214.289 166.151 214.289 168.752C214.289 171.354 217.168 173.463 220.719 173.463Z" fill="#35323E"/>
<path d="M238.17 174.496C241.721 174.496 244.6 172.387 244.6 169.786C244.6 167.184 241.721 165.075 238.17 165.075C234.619 165.075 231.74 167.184 231.74 169.786C231.74 172.387 234.619 174.496 238.17 174.496Z" fill="#35323E"/>
<path opacity="0.1" d="M238.17 174.496C241.721 174.496 244.6 172.387 244.6 169.786C244.6 167.184 241.721 165.075 238.17 165.075C234.619 165.075 231.74 167.184 231.74 169.786C231.74 172.387 234.619 174.496 238.17 174.496Z" fill="black"/>
<path d="M238.17 173.463C241.721 173.463 244.6 171.354 244.6 168.752C244.6 166.151 241.721 164.042 238.17 164.042C234.619 164.042 231.74 166.151 231.74 168.752C231.74 171.354 234.619 173.463 238.17 173.463Z" fill="#35323E"/>
<path d="M255.881 174.496C259.432 174.496 262.311 172.387 262.311 169.786C262.311 167.184 259.432 165.075 255.881 165.075C252.33 165.075 249.451 167.184 249.451 169.786C249.451 172.387 252.33 174.496 255.881 174.496Z" fill="#35323E"/>
<path opacity="0.1" d="M255.881 174.496C259.432 174.496 262.311 172.387 262.311 169.786C262.311 167.184 259.432 165.075 255.881 165.075C252.33 165.075 249.451 167.184 249.451 169.786C249.451 172.387 252.33 174.496 255.881 174.496Z" fill="black"/>
<path d="M255.881 173.463C259.432 173.463 262.311 171.354 262.311 168.752C262.311 166.151 259.432 164.042 255.881 164.042C252.33 164.042 249.451 166.151 249.451 168.752C249.451 171.354 252.33 173.463 255.881 173.463Z" fill="#35323E"/>
<path d="M274.121 174.496C277.672 174.496 280.551 172.387 280.551 169.786C280.551 167.184 277.672 165.075 274.121 165.075C270.57 165.075 267.691 167.184 267.691 169.786C267.691 172.387 270.57 174.496 274.121 174.496Z" fill="#35323E"/>
<path opacity="0.1" d="M274.121 174.496C277.672 174.496 280.551 172.387 280.551 169.786C280.551 167.184 277.672 165.075 274.121 165.075C270.57 165.075 267.691 167.184 267.691 169.786C267.691 172.387 270.57 174.496 274.121 174.496Z" fill="black"/>
<path d="M274.121 173.463C277.672 173.463 280.551 171.354 280.551 168.752C280.551 166.151 277.672 164.042 274.121 164.042C270.57 164.042 267.691 166.151 267.691 168.752C267.691 171.354 270.57 173.463 274.121 173.463Z" fill="#35323E"/>
<path d="M291.963 174.496C295.514 174.496 298.393 172.387 298.393 169.786C298.393 167.184 295.514 165.075 291.963 165.075C288.411 165.075 285.532 167.184 285.532 169.786C285.532 172.387 288.411 174.496 291.963 174.496Z" fill="#35323E"/>
<path opacity="0.1" d="M291.963 174.496C295.514 174.496 298.393 172.387 298.393 169.786C298.393 167.184 295.514 165.075 291.963 165.075C288.411 165.075 285.532 167.184 285.532 169.786C285.532 172.387 288.411 174.496 291.963 174.496Z" fill="black"/>
<path d="M291.963 173.463C295.514 173.463 298.393 171.354 298.393 168.752C298.393 166.151 295.514 164.042 291.963 164.042C288.411 164.042 285.532 166.151 285.532 168.752C285.532 171.354 288.411 173.463 291.963 173.463Z" fill="#35323E"/>
<path d="M309.413 174.496C312.965 174.496 315.843 172.387 315.843 169.786C315.843 167.184 312.965 165.075 309.413 165.075C305.862 165.075 302.983 167.184 302.983 169.786C302.983 172.387 305.862 174.496 309.413 174.496Z" fill="#4F8A8B"/>
<path opacity="0.1" d="M309.413 174.496C312.965 174.496 315.843 172.387 315.843 169.786C315.843 167.184 312.965 165.075 309.413 165.075C305.862 165.075 302.983 167.184 302.983 169.786C302.983 172.387 305.862 174.496 309.413 174.496Z" fill="black"/>
<path d="M309.413 173.463C312.965 173.463 315.843 171.354 315.843 168.752C315.843 166.151 312.965 164.042 309.413 164.042C305.862 164.042 302.983 166.151 302.983 168.752C302.983 171.354 305.862 173.463 309.413 173.463Z" fill="#4F8A8B"/>
<path d="M308.493 230.101H119.69C117.586 230.101 115.88 231.594 115.88 233.436V235.841C115.88 237.683 117.586 239.176 119.69 239.176H308.493C310.597 239.176 312.303 237.683 312.303 235.841V233.436C312.303 231.594 310.597 230.101 308.493 230.101Z" fill="#35323E"/>
<path opacity="0.1" d="M308.493 230.101H119.69C117.586 230.101 115.88 231.594 115.88 233.436V235.841C115.88 237.683 117.586 239.176 119.69 239.176H308.493C310.597 239.176 312.303 237.683 312.303 235.841V233.436C312.303 231.594 310.597 230.101 308.493 230.101Z" fill="black"/>
<path d="M308.493 229.41H119.69C117.586 229.41 115.88 230.903 115.88 232.745V235.15C115.88 236.992 117.586 238.485 119.69 238.485H308.493C310.597 238.485 312.303 236.992 312.303 235.15V232.745C312.303 230.903 310.597 229.41 308.493 229.41Z" fill="#35323E"/>
<path opacity="0.1" d="M285.537 121.881C285.537 131.588 250.442 141.983 210.874 141.983C171.307 141.983 141.996 130.783 141.996 121.075C141.996 111.368 171.315 106.83 210.874 106.83C250.434 106.83 285.537 112.173 285.537 121.881Z" fill="black"/>
<path d="M320.304 93.3906C322.695 93.3906 324.634 89.1992 324.634 84.0288C324.634 78.8583 322.695 74.6669 320.304 74.6669C317.912 74.6669 315.974 78.8583 315.974 84.0288C315.974 89.1992 317.912 93.3906 320.304 93.3906Z" fill="#464353"/>
<path d="M108.27 93.3906C110.662 93.3906 112.6 89.1992 112.6 84.0288C112.6 78.8583 110.662 74.6669 108.27 74.6669C105.879 74.6669 103.94 78.8583 103.94 84.0288C103.94 89.1992 105.879 93.3906 108.27 93.3906Z" fill="#464353"/>
<path opacity="0.1" d="M320.304 81.7894H111.42V84.5472H320.304V81.7894Z" fill="black"/>
<path d="M320.304 81.3298H111.42V84.0876H320.304V81.3298Z" fill="#464353"/>
<path d="M219.14 84.7752C217.43 84.3156 214.285 93.3906 214.285 93.3906H223.861C223.861 93.3906 220.849 85.2348 219.14 84.7752ZM219.005 85.9224C219.188 85.9217 219.366 85.9683 219.518 86.0564C219.669 86.1444 219.788 86.2699 219.858 86.417C219.928 86.5641 219.947 86.7261 219.912 86.8826C219.877 87.039 219.79 87.1828 219.662 87.2958C219.533 87.4088 219.369 87.4859 219.191 87.5172C219.012 87.5486 218.827 87.5329 218.659 87.472C218.49 87.4112 218.346 87.308 218.245 87.1755C218.144 87.043 218.09 86.8871 218.09 86.7277C218.09 86.622 218.114 86.5173 218.16 86.4196C218.206 86.3218 218.274 86.2331 218.359 86.1583C218.445 86.0835 218.546 86.0242 218.658 85.9837C218.769 85.9433 218.889 85.9224 219.01 85.9224H219.005ZM219.115 88.5185C220.236 88.7575 222.223 93.0449 222.223 93.0449H215.923C215.923 93.0449 217.997 88.2758 219.14 88.5185H219.115Z" fill="#464353"/>
<path opacity="0.03" d="M335.604 154.5H91.168C91.5264 151.504 91.9464 148.515 92.4279 145.532L98.6061 107.849C99.3926 103.132 102.091 98.8198 106.209 95.7007C110.327 92.5817 115.589 90.8638 121.034 90.8608H130.416C135.178 90.8754 139.806 92.2389 143.608 94.7475C153.327 101.098 180.937 105.679 213.487 105.679C246.036 105.679 273.659 101.112 283.399 94.7475C287.202 92.2389 291.83 90.8754 296.591 90.8608H311.79C314.985 90.8608 318.078 91.8464 320.525 93.6446C322.972 95.4429 324.617 97.9386 325.171 100.693L333.466 141.877C334.306 146.078 335.019 150.286 335.604 154.5Z" fill="white"/>
<path d="M129.749 19.1797L130.408 34.3844L149.509 19.1797H129.749Z" fill="white"/>
<path opacity="0.03" d="M129.749 19.1797L130.408 34.3844L149.509 19.1797H129.749Z" fill="black"/>
</g>
<defs>
<clipPath id="clip0">
<rect width="424" height="264" fill="white"/>
</clipPath>
</defs>
</svg>
